<?xml version="1.0" standalone="no"?>
<!DOCTYPE svg PUBLIC "-//W3C//DTD SVG 20010904//EN"
 "http://www.w3.org/TR/2001/REC-SVG-20010904/DTD/svg10.dtd">
<svg version="1.0" xmlns="http://www.w3.org/2000/svg"
 width="914.000000pt" height="914.000000pt" viewBox="0 0 914.000000 914.000000"
 preserveAspectRatio="xMidYMid meet">
<metadata>
Created by potrace 1.14, written by Peter Selinger 2001-2017
</metadata>
<g transform="translate(0.000000,914.000000) scale(0.100000,-0.100000)"
fill="#000000" stroke="none">
<path d="M4540 8729 c-7 -11 -18 -18 -25 -15 -7 2 -16 -2 -19 -10 -3 -8 -14
-14 -25 -14 -13 0 -19 -5 -15 -14 3 -9 -1 -13 -13 -13 -10 1 -17 -4 -15 -10 1
-7 -3 -13 -9 -13 -5 0 -7 -5 -3 -11 4 -8 0 -8 -15 0 -16 9 -21 9 -19 -1 2 -6
-3 -13 -9 -14 -7 -1 -18 -2 -24 -3 -5 0 -7 -5 -4 -11 3 -5 2 -10 -4 -10 -5 0
-11 6 -13 12 -3 8 -9 4 -17 -10 -10 -19 -15 -21 -27 -11 -10 8 -14 8 -14 0 0
-6 -10 -11 -23 -11 -13 0 -28 -5 -35 -12 -9 -9 -15 -9 -24 0 -9 9 -15 7 -25
-6 -14 -16 -14 -16 -9 3 6 19 5 19 -7 3 -8 -10 -17 -15 -21 -11 -4 4 -11 1
-16 -7 -7 -11 -10 -11 -10 -2 0 9 -5 10 -18 3 -13 -7 -22 -7 -30 1 -8 8 -14 5
-21 -13 -9 -21 -10 -22 -11 -4 -1 19 -1 19 -11 2 -6 -9 -14 -15 -20 -12 -5 4
-9 0 -9 -7 0 -9 -3 -9 -10 2 -8 12 -10 12 -10 -5 0 -17 -2 -17 -10 -5 -8 13
-10 12 -10 -3 0 -9 -3 -16 -7 -16 -20 3 -26 -2 -13 -11 12 -8 10 -10 -8 -10
-13 0 -20 -4 -17 -10 3 -6 -1 -7 -9 -4 -11 4 -16 0 -16 -10 0 -9 -3 -15 -7
-15 -5 1 -10 0 -13 -1 -21 -8 -39 -7 -33 3 4 6 0 8 -10 4 -10 -3 -17 -2 -17 3
0 6 -5 10 -11 10 -5 0 -7 -6 -4 -12 4 -7 1 -6 -7 2 -7 8 -21 16 -31 16 -15 2
-16 -1 -5 -14 11 -12 7 -12 -21 2 -32 17 -34 17 -27 1 5 -15 4 -16 -9 -5 -12
10 -15 10 -15 -1 0 -9 -3 -10 -8 -4 -12 17 -32 16 -25 -2 4 -10 2 -14 -5 -9
-6 3 -13 2 -17 -3 -3 -6 -13 -7 -22 -4 -9 4 -14 2 -10 -3 3 -6 -3 -16 -15 -23
-15 -9 -18 -10 -13 0 5 8 4 10 -3 5 -7 -4 -12 -14 -12 -23 0 -10 -6 -13 -16
-9 -8 3 -12 2 -9 -4 3 -5 1 -18 -5 -27 -11 -17 -11 -16 -5 1 4 16 0 14 -21 -7
-22 -23 -29 -25 -42 -15 -13 11 -14 11 -7 -1 6 -11 4 -13 -8 -8 -9 3 -18 0
-21 -9 -5 -12 -10 -13 -27 -3 -19 10 -21 9 -15 -7 4 -10 4 -15 0 -11 -4 4 -12
3 -18 -2 -21 -16 -45 -20 -52 -9 -5 7 -2 8 6 3 9 -5 11 -4 6 4 -6 9 -11 9 -24
-1 -10 -8 -13 -9 -9 -1 4 6 3 14 -3 18 -5 3 -10 1 -10 -5 0 -6 -5 -8 -10 -5
-6 4 -8 11 -5 16 3 5 -1 6 -9 3 -9 -3 -16 -2 -16 4 0 5 -9 12 -20 15 -11 3
-20 0 -20 -6 0 -8 -4 -7 -12 1 -13 13 -32 16 -24 4 2 -4 -4 -8 -15 -8 -10 0
-19 4 -19 8 0 11 -23 6 -32 -7 -5 -7 -8 -6 -8 0 0 12 -40 13 -57 2 -7 -4 -14
-3 -18 3 -9 14 -42 13 -48 -2 -4 -9 -6 -7 -6 3 -1 10 -9 16 -23 15 -23 -1 -58
21 -58 37 0 14 -27 36 -36 29 -5 -4 -2 1 5 11 9 11 10 17 2 17 -6 0 -11 7 -11
17 0 9 -3 14 -6 10 -4 -3 -13 0 -20 8 -8 8 -21 12 -28 9 -8 -3 -17 -1 -21 5
-3 6 -15 11 -26 11 -10 0 -19 5 -19 11 0 6 -9 9 -20 6 -14 -4 -20 0 -21 11 0
11 -2 13 -6 4 -4 -10 -8 -10 -21 0 -13 11 -14 11 -7 -1 6 -11 4 -13 -9 -8 -10
4 -15 3 -11 -3 6 -9 -8 -14 -27 -11 -5 0 -8 -7 -8 -16 0 -11 -3 -14 -8 -7 -4
6 -14 3 -26 -10 -19 -19 -19 -19 0 -13 19 7 19 7 0 -8 -11 -8 -23 -15 -28 -15
-4 0 -4 -8 -1 -17 6 -16 5 -17 -12 -3 -15 12 -17 12 -10 1 6 -11 4 -13 -10 -7
-15 5 -16 4 -5 -9 11 -13 10 -14 -5 -9 -10 4 -21 1 -26 -7 -6 -10 -9 -10 -9
-1 0 7 -8 4 -20 -8 -12 -12 -25 -18 -30 -15 -5 3 -7 -1 -4 -9 4 -11 -1 -14
-19 -12 -17 2 -24 -2 -23 -13 0 -8 -8 -17 -19 -19 -11 -3 -24 -11 -30 -19 -6
-8 -26 -16 -43 -16 -24 -1 -31 -6 -27 -17 3 -9 -1 -7 -10 4 -11 14 -15 16 -15
5 0 -11 -2 -12 -9 0 -6 9 -11 10 -15 2 -4 -6 -12 -11 -17 -11 -6 0 -7 6 -3 13
5 8 2 8 -9 -2 -13 -10 -17 -10 -17 -1 0 10 -4 10 -16 -1 -13 -10 -17 -10 -25
2 -8 12 -10 12 -19 -1 -8 -13 -11 -12 -23 4 -10 13 -16 16 -21 7 -4 -6 -12 -9
-17 -6 -5 4 -9 0 -10 -7 0 -7 -4 -4 -9 7 -5 11 -9 14 -9 8 -1 -7 -6 -13 -12
-13 -5 0 -7 4 -4 10 3 6 -1 7 -9 4 -9 -3 -16 -11 -16 -18 0 -7 -4 -6 -9 3 -6
9 -11 10 -15 2 -4 -6 -12 -11 -17 -11 -6 0 -7 5 -3 11 3 6 -5 3 -20 -6 -14
-10 -26 -14 -26 -10 0 4 -6 2 -13 -4 -8 -6 -18 -7 -22 -3 -5 4 -5 2 -1 -5 4
-8 -2 -15 -19 -19 -13 -3 -23 -10 -20 -14 3 -4 -7 -11 -20 -14 -17 -4 -23 -11
-19 -19 5 -9 4 -9 -6 0 -10 9 -17 7 -32 -6 -10 -10 -30 -17 -44 -15 -20 2 -24
-1 -19 -14 3 -9 3 -13 -1 -10 -4 4 -15 3 -25 -3 -15 -8 -19 -6 -20 8 0 16 -1
16 -9 -2 -6 -13 -9 -15 -9 -5 -1 9 -4 11 -9 5 -10 -14 -32 -17 -32 -4 0 8 -6
7 -17 -2 -12 -10 -15 -10 -9 -1 4 7 -9 3 -29 -8 -21 -12 -34 -15 -30 -8 4 7
-1 4 -9 -6 -9 -11 -19 -17 -22 -13 -13 12 -43 -13 -38 -31 4 -10 2 -13 -3 -7
-13 16 -33 16 -33 -1 0 -8 -5 -12 -10 -9 -6 3 -13 -1 -16 -10 -4 -9 -13 -14
-21 -11 -8 3 -11 2 -8 -4 3 -5 -4 -14 -15 -20 -11 -6 -18 -16 -14 -21 4 -7 -1
-7 -15 0 -18 10 -20 9 -14 -5 5 -13 3 -15 -8 -9 -12 7 -12 6 -1 -7 10 -12 10
-17 -1 -27 -8 -6 -17 -8 -20 -5 -4 4 -5 -3 -2 -15 2 -11 0 -21 -6 -21 -5 0 -8
-4 -6 -9 1 -5 -7 -17 -18 -25 -19 -15 -19 -16 -1 -9 15 5 17 3 11 -7 -6 -10
-4 -12 8 -7 9 3 16 3 16 -1 -4 -22 3 -31 19 -25 15 6 16 5 2 -12 -14 -17 -14
-18 7 -7 20 11 21 10 18 -9 -3 -16 -1 -18 9 -10 16 14 29 2 16 -15 -8 -8 -7
-12 2 -11 32 1 49 -4 43 -13 -3 -5 -1 -10 5 -10 6 0 8 -6 4 -12 -4 -7 -4 -10
1 -6 4 4 14 3 22 -4 11 -9 12 -7 7 7 -6 15 -4 16 14 6 21 -11 27 -8 23 13 -1
5 5 4 13 -4 13 -10 16 -10 16 0 0 10 3 10 14 1 10 -9 16 -9 21 -1 4 6 14 9 22
6 9 -4 11 -2 7 5 -5 8 3 10 25 7 18 -3 31 0 31 6 0 6 5 4 10 -4 8 -12 10 -12
10 -1 0 11 5 10 20 -4 20 -18 21 -18 14 1 -7 17 -6 17 9 6 9 -8 22 -10 28 -6
7 4 9 3 6 -3 -4 -6 0 -14 9 -17 8 -3 13 -2 10 3 -3 5 1 11 9 14 9 4 12 1 9 -8
-4 -10 0 -12 15 -8 12 3 21 1 21 -6 0 -6 14 -11 30 -11 17 0 30 -5 30 -11 0
-5 4 -8 9 -4 5 3 12 1 15 -4 3 -5 15 -7 26 -4 12 3 20 0 20 -7 0 -10 3 -10 15
0 9 7 15 8 15 2 0 -5 7 -13 16 -16 8 -3 12 -2 9 4 -11 17 7 11 21 -7 13 -17
14 -17 7 2 -6 18 -5 18 10 6 9 -7 17 -9 17 -3 0 5 9 8 20 5 12 -3 20 0 20 8 0
7 3 9 6 6 4 -4 1 -13 -5 -21 -11 -13 -8 -14 19 -6 24 7 32 6 37 -5 4 -11 10
-12 24 -4 11 5 19 6 18 2 -4 -22 2 -32 16 -27 8 4 15 1 15 -5 0 -6 6 -11 14
-11 16 0 29 -27 20 -41 -3 -5 -1 -9 5 -9 5 0 9 -9 8 -20 -1 -14 -6 -19 -17
-15 -9 3 -8 -1 4 -10 12 -9 15 -15 7 -15 -9 0 -11 -8 -8 -22 4 -14 0 -30 -11
-42 -9 -11 -11 -16 -4 -12 6 4 12 3 12 -3 0 -5 -6 -12 -12 -14 -10 -4 -9 -6 1
-6 11 -1 11 -4 1 -16 -9 -11 -9 -15 -1 -15 7 0 9 -4 6 -10 -3 -5 0 -10 7 -10
9 0 9 -3 -2 -10 -13 -9 -13 -10 0 -11 8 -1 19 -1 23 0 5 1 6 -3 3 -8 -4 -5 0
-12 6 -14 9 -4 8 -6 -2 -6 -8 -1 0 -10 18 -21 17 -11 32 -27 32 -37 0 -13 3
-14 12 -5 18 18 27 14 22 -10 -2 -13 -1 -17 2 -10 5 10 10 9 21 -5 8 -10 11
-12 7 -4 -5 9 -3 12 4 7 7 -4 12 -16 12 -27 0 -10 4 -19 9 -19 5 0 7 -10 3
-22 -3 -13 -1 -19 5 -15 7 5 9 -1 5 -15 -4 -16 -2 -19 9 -13 12 8 12 6 0 -8
-7 -9 -9 -17 -3 -17 14 0 22 -38 8 -44 -6 -2 -3 -5 7 -5 11 -1 17 -7 14 -13
-2 -7 -11 -12 -18 -10 -11 3 -11 1 -2 -9 10 -10 9 -15 -5 -26 -9 -8 -11 -12
-4 -8 16 8 15 -10 -2 -24 -17 -14 -14 -70 5 -82 12 -7 12 -9 -1 -9 -13 0 -13
-1 0 -10 13 -9 13 -10 0 -10 -12 -1 -11 -3 3 -11 9 -5 17 -15 17 -20 0 -6 -4
-8 -8 -5 -5 3 -9 -1 -9 -9 0 -8 4 -12 9 -9 4 3 8 0 8 -5 0 -6 -8 -11 -17 -12
-15 0 -15 -2 2 -9 l20 -9 -20 0 c-17 -1 -17 -3 -5 -11 11 -7 12 -10 2 -10 -8
0 -12 -6 -9 -12 2 -7 -3 -19 -12 -26 -12 -10 -13 -12 -1 -6 13 7 13 5 1 -9 -7
-9 -18 -14 -24 -10 -6 3 -7 1 -3 -6 4 -6 12 -9 17 -6 5 4 9 1 9 -4 0 -6 -5
-11 -12 -11 -6 0 -8 -3 -5 -7 4 -3 -1 -12 -11 -20 -9 -8 -11 -12 -4 -8 18 9
15 -6 -5 -22 -17 -14 -17 -14 1 -9 16 6 17 4 6 -9 -7 -8 -16 -13 -20 -10 -5 3
-12 1 -15 -5 -4 -6 -1 -9 6 -8 6 2 14 -3 17 -11 3 -9 0 -11 -8 -6 -10 6 -12 3
-8 -13 4 -15 0 -22 -16 -26 -19 -5 -20 -7 -4 -22 12 -12 14 -23 8 -39 -5 -12
-7 -34 -6 -49 3 -22 1 -24 -12 -14 -13 11 -14 10 -4 -8 6 -12 7 -26 2 -34 -5
-8 -5 -21 1 -31 7 -13 5 -21 -8 -28 -11 -6 -13 -11 -5 -11 7 0 10 -5 7 -10 -4
-6 -10 -8 -15 -5 -4 3 -6 -5 -3 -17 4 -19 3 -20 -6 -8 -7 9 -11 10 -11 3 0 -6
5 -15 11 -19 8 -4 6 -10 -6 -17 -14 -8 -15 -11 -4 -18 11 -7 11 -9 1 -9 -7 0
-10 -4 -7 -10 3 -5 1 -10 -6 -10 -10 0 -10 -3 -1 -12 9 -9 8 -16 -4 -30 -15
-16 -15 -18 0 -24 13 -5 15 -9 5 -15 -10 -6 -10 -11 2 -25 9 -11 9 -15 2 -10
-10 5 -11 1 -4 -17 6 -14 7 -29 3 -33 -4 -5 2 -2 12 6 11 8 17 10 13 3 -4 -6
-1 -14 5 -16 10 -4 10 -6 1 -6 -7 -1 -10 -8 -7 -16 4 -8 11 -12 17 -8 6 4 8 0
4 -10 -4 -11 -1 -17 8 -17 9 0 15 -10 15 -26 0 -14 4 -23 8 -20 4 2 14 -4 21
-16 9 -14 9 -18 1 -13 -9 6 -9 2 -1 -14 7 -11 15 -21 19 -21 5 0 14 -16 21
-35 7 -19 17 -33 22 -30 5 4 9 2 9 -4 0 -5 -6 -12 -12 -14 -8 -3 -6 -6 4 -6
12 -1 15 -6 11 -18 -4 -11 -3 -14 5 -9 16 10 15 -6 0 -23 -10 -11 -10 -13 0
-7 7 4 12 1 12 -8 0 -9 6 -16 13 -16 8 0 7 -4 -3 -10 -11 -7 -11 -10 -2 -10
10 0 10 -5 1 -22 -11 -22 -11 -22 6 -8 16 14 17 13 11 -8 -5 -13 -3 -22 3 -22
6 0 11 -13 11 -30 0 -16 5 -30 11 -30 8 0 7 -6 -2 -17 -10 -11 -10 -14 -1 -9
12 7 15 0 15 -36 0 -10 4 -15 9 -12 5 3 7 -6 4 -20 -3 -18 -1 -24 6 -20 7 5 9
1 5 -9 -3 -10 -2 -17 3 -17 6 0 10 -5 10 -11 0 -5 -5 -7 -12 -3 -7 4 -2 -7 11
-24 19 -28 20 -31 4 -26 -17 5 -17 5 -1 -9 21 -16 24 -32 6 -21 -10 6 -10 4 0
-7 6 -7 12 -23 12 -36 0 -13 6 -23 13 -23 8 0 7 -4 -3 -10 -12 -8 -12 -10 -1
-10 11 0 11 -3 0 -17 -10 -11 -10 -14 -1 -9 7 4 12 2 12 -4 0 -6 4 -8 10 -5 7
4 7 -3 0 -19 -7 -19 -6 -26 3 -26 8 0 8 -3 -2 -9 -11 -7 -11 -9 0 -14 11 -4
11 -6 1 -6 -7 -1 -10 -5 -7 -11 3 -5 2 -10 -4 -10 -5 0 -7 -15 -4 -32 3 -18 6
-37 6 -43 1 -5 7 -13 12 -17 6 -5 4 -12 -5 -18 -13 -9 -13 -11 0 -20 13 -9 13
-10 0 -10 -12 0 -12 -2 -1 -9 9 -6 10 -11 3 -15 -6 -4 -9 -13 -5 -21 3 -9 0
-22 -7 -30 -11 -13 -10 -15 6 -9 18 5 18 5 2 -9 -10 -8 -15 -17 -11 -20 3 -4
0 -14 -8 -24 -12 -15 -12 -16 1 -8 13 8 13 7 0 -9 -8 -10 -13 -32 -11 -48 1
-17 -1 -28 -6 -25 -6 4 -10 0 -10 -8 0 -8 5 -11 11 -8 6 4 5 -1 -3 -10 -11
-14 -11 -17 0 -17 11 0 11 -2 -1 -10 -13 -8 -13 -10 2 -10 9 0 20 -5 24 -12 4
-7 3 -8 -4 -4 -7 4 -12 3 -12 -3 0 -5 5 -13 10 -16 6 -4 8 -10 5 -15 -3 -5 2
-16 11 -24 9 -9 13 -23 10 -31 -3 -9 0 -15 9 -15 8 0 15 -4 15 -10 0 -5 7 -10
15 -10 9 0 12 -6 8 -17 -4 -10 -2 -14 4 -10 12 8 12 -11 0 -30 -4 -6 -3 -14 2
-17 10 -7 9 -25 -2 -43 -5 -8 -3 -13 4 -13 7 0 4 -7 -7 -16 -13 -10 -14 -14
-4 -11 10 3 16 -2 16 -14 0 -11 -5 -19 -11 -19 -5 0 -3 -5 5 -10 13 -8 13 -10
1 -10 -11 0 -10 -4 5 -16 19 -15 19 -16 -1 -9 -18 6 -18 5 2 -17 17 -18 19
-27 11 -42 -8 -14 -7 -21 3 -27 12 -8 12 -10 0 -18 -15 -10 -5 -35 11 -25 6 4
6 0 -1 -13 -6 -11 -7 -23 -4 -27 11 -10 12 -37 2 -30 -9 5 -12 -4 -12 -38 0
-10 -4 -15 -8 -12 -5 3 -9 0 -9 -6 0 -6 -5 -8 -12 -4 -6 4 -8 3 -4 -4 3 -6 1
-14 -5 -17 -5 -4 -8 -13 -6 -19 3 -7 -4 -18 -14 -24 -10 -7 -19 -21 -19 -31 0
-11 -5 -23 -12 -27 -7 -5 -8 -3 -3 6 5 9 4 11 -4 6 -9 -6 -9 -11 0 -22 8 -10
8 -14 0 -14 -6 0 -11 -9 -11 -19 0 -11 -5 -23 -10 -26 -6 -4 -8 -11 -5 -16 4
-5 2 -9 -4 -9 -6 0 -7 -8 -4 -17 5 -13 2 -15 -11 -10 -10 4 -15 3 -11 -3 3 -6
0 -10 -7 -10 -10 0 -10 -2 1 -9 11 -7 9 -11 -8 -20 -18 -10 -19 -15 -10 -33
10 -18 9 -20 -5 -15 -9 4 -16 2 -16 -3 0 -6 6 -10 13 -10 6 0 4 -5 -5 -11 -10
-5 -18 -15 -18 -20 0 -6 4 -7 10 -4 5 3 7 0 4 -9 -3 -9 -12 -12 -22 -8 -15 5
-15 4 0 -12 19 -19 24 -31 9 -22 -23 15 -16 -25 9 -55 16 -19 29 -40 30 -46 0
-7 7 -13 16 -13 8 0 12 -4 9 -10 -3 -5 1 -10 10 -10 9 0 13 -4 10 -10 -6 -9 8
-15 29 -11 5 1 3 -5 -4 -14 -11 -13 -10 -14 5 -9 13 5 16 4 11 -4 -5 -8 0 -12
13 -12 12 0 21 -5 21 -11 0 -5 -5 -7 -12 -3 -7 5 -8 3 -2 -7 11 -19 14 -40 4
-34 -4 3 -10 -2 -14 -10 -3 -8 0 -15 7 -15 8 0 7 -4 -3 -10 -8 -5 -11 -12 -7
-16 4 -4 2 -13 -4 -21 -9 -10 -8 -13 2 -13 11 0 11 -2 -1 -10 -12 -8 -12 -10
-1 -10 11 0 11 -3 1 -15 -10 -12 -10 -15 0 -15 10 0 10 -3 0 -15 -9 -11 -10
-15 0 -15 6 0 10 -8 8 -18 -2 -9 7 -26 19 -38 13 -12 20 -24 16 -27 -3 -4 5
-16 18 -27 13 -11 20 -20 14 -19 -24 3 -28 -2 -10 -14 17 -13 17 -15 -3 -35
-12 -12 -19 -22 -16 -22 4 0 1 -7 -6 -15 -6 -8 -9 -19 -5 -25 3 -5 0 -10 -7
-10 -8 -1 -6 -6 6 -15 17 -13 17 -15 4 -15 -9 0 -20 -5 -24 -12 -4 -7 -3 -8 4
-4 7 4 12 1 12 -8 0 -9 5 -16 12 -16 9 0 9 -3 1 -11 -12 -12 -6 -49 9 -49 5 0
6 -4 3 -10 -3 -5 -1 -10 6 -10 8 0 9 -3 0 -13 -15 -19 -1 -30 17 -14 13 9 14
9 8 0 -4 -8 -2 -13 5 -13 7 0 4 -7 -7 -16 -10 -8 -14 -13 -8 -10 7 3 16 0 22
-7 11 -13 12 -17 12 -43 0 -9 5 -12 12 -8 7 5 9 2 5 -8 -3 -9 1 -27 8 -41 12
-23 11 -25 -3 -21 -15 5 -15 4 0 -5 10 -7 16 -23 16 -42 -1 -17 3 -34 8 -37 5
-4 10 -15 12 -26 2 -13 -1 -16 -10 -10 -10 6 -10 4 1 -9 15 -19 26 -23 15 -5
-4 7 -3 8 5 4 9 -6 9 -11 0 -22 -9 -11 -8 -14 2 -14 11 0 11 -2 -1 -10 -12 -8
-12 -10 -1 -10 8 0 11 -7 8 -20 -3 -13 0 -20 8 -20 8 0 17 -4 20 -10 3 -5 0
-7 -8 -4 -8 3 -14 -2 -14 -11 0 -8 4 -15 9 -15 4 0 8 -5 8 -11 0 -5 -4 -8 -8
-5 -5 3 -9 -1 -9 -9 0 -8 3 -14 6 -13 19 2 24 -4 11 -12 -9 -6 -11 -10 -3 -10
7 0 10 -7 7 -15 -4 -8 -1 -15 5 -15 9 0 9 -5 1 -20 -8 -15 -8 -20 2 -20 10 0
10 -2 0 -9 -11 -6 -10 -10 4 -15 16 -6 16 -8 4 -16 -10 -7 -11 -10 -2 -10 6 0
12 -5 12 -11 0 -5 -4 -7 -10 -4 -6 3 -7 -1 -4 -9 3 -9 10 -16 15 -16 5 0 9 -5
9 -11 0 -5 -4 -8 -8 -5 -5 3 -8 -4 -7 -15 1 -11 7 -24 15 -29 10 -6 8 -9 -6
-13 -18 -4 -18 -5 1 -6 17 -1 18 -3 5 -11 -8 -5 -10 -10 -4 -10 7 0 9 -11 6
-26 -3 -16 -1 -25 5 -21 5 3 10 0 10 -8 0 -8 -5 -11 -10 -8 -6 4 -8 -1 -4 -11
4 -10 7 -20 7 -22 0 -3 4 -3 8 0 5 3 9 -1 9 -9 0 -8 -3 -13 -6 -12 -3 1 -6 -2
-6 -8 0 -5 3 -9 6 -8 3 1 6 -5 6 -13 0 -7 -7 -14 -16 -14 -11 0 -10 -3 5 -15
10 -8 15 -15 10 -15 -5 0 -2 -8 5 -17 11 -13 11 -15 1 -9 -10 6 -9 0 2 -23 15
-29 15 -30 -1 -24 -12 4 -10 -1 7 -16 14 -12 19 -20 13 -16 -7 3 -13 1 -13 -4
0 -6 5 -11 11 -11 5 0 9 -8 7 -18 -2 -11 4 -27 12 -37 8 -11 10 -16 3 -12 -13
8 -12 -18 2 -30 4 -4 5 -2 0 6 -5 9 -4 12 3 7 7 -4 12 -16 12 -27 0 -11 7 -19
18 -19 14 0 15 -2 2 -10 -13 -8 -13 -10 2 -10 9 0 20 -5 24 -12 4 -7 3 -8 -4
-4 -8 5 -10 2 -6 -8 3 -9 10 -14 16 -13 6 1 12 -7 14 -17 1 -10 9 -23 16 -27
12 -8 4 -13 -15 -10 -4 1 -3 -7 3 -18 12 -24 13 -34 1 -27 -5 3 -11 -1 -15 -9
-3 -10 1 -15 11 -15 15 0 15 -2 -1 -13 -17 -12 -17 -14 -2 -20 21 -8 21 -27
-1 -28 -15 0 -15 -2 2 -9 11 -5 16 -9 10 -9 -5 -1 -3 -6 5 -11 13 -9 13 -10 0
-10 -12 0 -12 -2 -2 -9 7 -4 14 -17 15 -29 0 -11 4 -19 7 -17 3 1 11 -3 18
-11 10 -11 10 -14 0 -14 -8 0 -6 -5 5 -11 9 -6 15 -14 12 -20 -6 -8 8 -13 28
-10 4 0 7 -3 7 -9 0 -5 9 -10 20 -10 11 0 20 -6 20 -14 0 -9 7 -13 20 -11 11
2 24 -3 30 -13 6 -10 10 -12 10 -4 0 9 5 10 19 2 17 -9 19 -7 16 11 -4 18 -2
19 11 8 8 -7 14 -8 12 -3 -4 14 34 94 43 88 4 -2 10 0 14 6 3 5 0 10 -7 10 -7
0 -2 10 12 21 14 11 19 18 12 14 -11 -6 -11 -3 -1 13 7 12 16 19 20 16 9 -5 4
31 -7 48 -5 7 -3 8 6 3 10 -6 12 0 8 23 -3 24 -1 29 11 24 9 -3 13 -2 9 3 -4
4 -2 15 5 23 9 13 9 14 0 8 -7 -4 -13 -2 -13 3 0 6 5 11 10 11 7 0 7 6 0 19
-8 16 -6 20 8 24 14 4 14 5 -3 6 -17 1 -18 3 -5 11 13 9 13 10 0 10 -13 0 -13
1 0 10 13 8 12 10 -4 10 -16 0 -17 2 -5 17 10 11 10 14 2 9 -7 -4 -13 -2 -13
3 0 19 -3 26 -18 40 -11 11 -11 15 0 22 9 6 7 9 -9 9 -13 0 -23 5 -23 11 0 5
4 8 8 5 5 -3 9 1 9 9 0 8 -5 11 -10 8 -6 -4 -8 0 -4 10 3 9 1 18 -6 21 -9 3
-8 8 3 15 13 10 13 12 1 20 -12 8 -12 12 -2 25 11 13 11 16 0 16 -11 0 -11 2
1 10 11 7 12 10 2 10 -9 0 -12 10 -10 29 1 16 -4 37 -12 47 -8 10 -10 15 -4
11 6 -3 11 0 11 8 0 8 -4 12 -9 9 -4 -3 -8 2 -8 10 0 9 6 16 13 17 6 0 3 4 -8
9 -11 5 -14 9 -7 9 7 1 10 6 7 11 -4 6 -12 8 -18 4 -7 -3 -4 1 6 9 14 11 15
17 6 23 -9 5 -7 10 7 15 17 7 17 8 -3 8 -24 1 -30 15 -12 27 6 3 9 19 7 35 -3
22 0 29 11 29 13 0 13 2 2 9 -9 6 -10 10 -2 16 9 5 9 10 1 20 -8 9 -8 15 0 20
14 9 13 27 -2 20 -7 -4 -5 0 4 8 13 10 15 16 6 25 -9 9 -9 12 1 12 8 0 11 6 7
16 -3 8 -2 12 4 9 6 -3 10 -1 10 4 0 6 -6 11 -12 11 -10 0 -9 3 1 9 11 7 11 9
0 14 -12 4 -11 7 1 16 13 10 13 12 0 21 -13 9 -13 10 0 10 13 0 13 1 0 10 -13
9 -13 11 0 20 8 5 12 10 8 10 -4 0 -3 11 2 25 6 16 6 25 0 25 -5 0 -7 7 -3 16
3 9 1 19 -5 23 -6 4 -12 23 -14 44 -1 20 -6 37 -10 37 -4 0 -8 -5 -8 -12 0 -6
-3 -9 -6 -6 -3 3 2 23 11 44 9 22 15 40 13 41 -2 1 1 5 6 10 5 4 6 3 2 -4 -3
-6 -2 -14 2 -17 11 -6 9 34 -1 52 -5 7 -2 14 7 18 12 5 13 11 6 24 -12 22 -13
33 -2 26 4 -2 6 14 3 37 -2 23 -8 45 -13 48 -5 3 -6 13 -2 22 3 9 9 15 13 13
4 -3 8 4 8 15 1 13 -2 17 -10 12 -7 -4 -6 0 2 10 7 9 18 14 24 10 5 -3 7 -1 3
5 -3 5 -3 12 1 15 5 2 2 2 -4 1 -7 -2 -13 1 -13 6 0 6 5 10 11 10 6 0 8 7 5
16 -6 15 -4 15 10 3 16 -13 16 -12 5 9 -9 17 -9 22 1 23 7 0 4 4 -7 9 -18 8
-18 9 -2 9 15 1 16 5 7 21 -8 15 -8 20 2 20 9 0 9 3 -2 10 -11 7 -11 10 -2 10
10 0 10 5 2 20 -6 11 -8 20 -4 20 4 0 -3 8 -14 19 -25 21 -28 32 -10 27 7 -1
10 -1 5 2 -4 2 -12 13 -18 24 -6 11 -7 18 -2 15 5 -4 10 0 10 8 0 8 -5 11 -10
8 -6 -4 -8 0 -4 10 3 9 1 18 -6 20 -9 3 -8 8 2 20 12 15 11 17 -5 18 -12 0
-14 3 -6 6 10 4 10 8 1 19 -9 11 -9 14 1 14 10 0 10 3 0 15 -7 8 -9 15 -5 15
4 0 2 7 -5 15 -7 8 -16 13 -19 10 -4 -2 -8 3 -8 11 0 8 6 13 14 10 17 -7 16
-1 -3 19 -12 12 -13 19 -5 29 9 11 9 15 -1 19 -11 4 -11 9 0 27 11 18 11 21 0
15 -10 -6 -11 -5 0 6 14 15 17 33 4 25 -5 -3 -9 1 -9 9 0 8 4 12 9 9 4 -3 9 1
9 8 1 7 2 18 4 23 1 6 3 16 3 23 1 7 6 11 11 7 6 -3 6 7 1 26 -8 28 -8 30 8
18 9 -7 14 -10 10 -5 -4 5 -3 18 3 29 7 13 7 17 1 13 -6 -3 -14 -1 -18 5 -4 7
-3 9 2 6 6 -3 16 -2 24 4 11 6 12 9 2 9 -7 0 -10 5 -7 10 4 6 10 8 15 5 4 -3
6 4 3 15 -3 11 -2 28 3 37 9 21 11 30 13 61 1 16 5 21 14 16 7 -5 6 0 -3 11
-11 14 -11 17 -1 11 10 -7 12 -3 6 14 -5 15 -4 20 4 16 7 -5 10 3 7 24 -2 22
0 28 8 21 8 -7 12 -4 12 9 0 10 -5 16 -11 12 -5 -3 -2 6 8 21 18 28 24 52 6
27 -9 -12 -10 -11 -4 5 4 11 8 25 9 31 1 7 8 19 15 28 7 8 10 20 6 26 -3 5 -1
10 5 10 6 0 9 4 5 9 -3 5 -1 12 5 16 6 4 8 11 5 16 -4 5 -1 9 6 9 8 0 7 5 -2
17 -10 12 -10 14 -1 9 15 -9 20 4 26 63 3 24 8 47 13 50 11 8 10 34 -2 43 -6
5 -4 8 5 8 13 0 13 1 0 10 -11 7 -11 10 -2 10 7 0 10 5 7 10 -4 6 -12 8 -18 4
-7 -3 -5 0 3 8 17 15 20 32 6 45 -5 5 -6 2 -1 -6 6 -10 4 -12 -4 -7 -7 5 -10
14 -7 22 3 8 1 14 -5 14 -6 0 -8 7 -5 16 3 8 2 13 -2 10 -4 -2 -14 -1 -22 5
-12 7 -11 9 5 10 16 0 14 3 -7 11 -16 5 -28 14 -28 19 0 6 -4 7 -10 4 -5 -3
-10 -1 -10 5 0 6 -5 8 -12 4 -7 -4 -8 -3 -4 5 4 6 12 9 17 6 5 -3 6 1 3 9 -3
9 -11 16 -18 16 -6 0 -4 5 4 10 12 8 12 10 1 10 -10 0 -11 3 -3 13 6 7 9 25 8
39 -2 16 1 25 7 21 5 -3 7 0 5 8 -3 8 2 20 11 27 9 8 10 11 3 7 -9 -5 -11 0
-7 17 4 13 7 31 8 39 2 8 7 20 11 28 7 10 5 12 -4 6 -9 -6 -10 -2 -5 15 5 15
4 20 -4 16 -6 -4 -11 -2 -11 3 0 6 5 11 11 11 6 0 3 8 -8 18 -10 9 -13 13 -6
8 20 -13 16 -2 -12 29 -16 20 -21 33 -15 40 6 7 6 16 2 20 -4 5 -2 6 3 3 6 -3
16 0 23 8 10 11 10 14 0 14 -10 0 -10 2 1 9 8 5 11 16 8 25 -4 10 -1 16 9 16
8 0 12 5 9 10 -4 6 -11 7 -17 4 -7 -4 -8 -2 -4 5 4 6 12 9 17 6 5 -4 9 3 9 15
0 11 7 23 15 26 8 4 12 10 9 15 -3 5 2 9 10 9 9 0 13 6 10 14 -3 8 0 17 5 21
6 3 9 11 6 16 -3 5 1 6 9 3 11 -4 14 1 12 21 -2 17 4 31 18 40 11 8 17 15 12
15 -5 0 -2 8 5 17 12 14 12 16 -1 9 -8 -4 -7 -1 3 7 10 8 14 17 10 20 -5 3 -8
27 -7 54 1 26 -4 51 -10 55 -7 5 -6 8 3 8 11 0 10 4 -5 16 -10 8 -12 13 -4 9
8 -4 6 1 -5 10 -11 9 -19 18 -17 20 6 12 1 26 -8 20 -5 -3 -10 1 -10 10 0 9
-3 14 -7 12 -5 -3 -17 7 -28 22 -19 26 -19 26 0 12 11 -8 8 -2 -7 12 -18 18
-25 33 -21 44 4 10 2 14 -4 10 -6 -4 -13 0 -16 7 -3 8 -1 17 6 20 7 2 4 5 -6
5 -9 1 -16 4 -16 9 4 21 -2 32 -13 26 -10 -5 -10 -4 -1 6 9 10 8 16 -6 29 -9
9 -10 12 -2 6 11 -8 11 -4 -2 21 -9 17 -13 35 -9 39 4 5 2 5 -5 1 -6 -3 -14
-2 -18 4 -3 5 0 10 7 10 9 0 9 3 2 8 -6 4 -13 19 -16 35 -4 20 -1 27 11 27 13
0 13 2 2 9 -7 5 -10 14 -7 20 4 6 4 10 -1 9 -4 -2 -10 2 -11 7 -2 6 -9 19 -15
30 -6 11 -10 26 -8 34 1 7 -2 10 -8 6 -7 -4 -8 0 -4 11 5 13 3 16 -10 11 -12
-4 -14 -2 -10 10 5 11 3 14 -6 8 -10 -6 -11 -3 -2 14 7 11 8 21 4 21 -4 0 -8
11 -8 24 0 13 3 22 6 20 4 -2 9 3 13 11 3 8 0 15 -7 15 -8 0 -6 4 3 10 9 6 11
10 3 10 -7 0 -10 7 -7 15 4 8 11 12 18 8 6 -4 5 1 -3 11 -13 15 -13 19 0 27
12 7 12 9 -1 9 -13 0 -13 1 0 10 13 9 13 10 0 10 -13 0 -13 1 0 10 13 9 13 10
0 10 -12 0 -13 2 -1 9 11 7 11 9 0 13 -12 4 -12 8 0 22 13 15 12 18 -7 23 -16
4 -22 13 -22 35 0 26 -2 29 -15 18 -13 -11 -14 -10 -9 5 5 13 4 16 -4 11 -7
-4 -12 -3 -12 3 0 5 5 13 11 17 8 4 7 9 -2 15 -11 7 -11 9 1 9 13 0 13 1 0 10
-12 8 -12 10 4 16 14 5 15 9 4 15 -9 6 -10 9 -1 9 7 0 10 6 7 14 -3 8 -1 17 5
21 6 3 11 1 11 -6 0 -7 3 -9 6 -6 4 4 1 14 -7 24 -9 11 -10 14 -1 9 11 -7 17
5 13 27 -1 5 3 6 9 2 5 -3 10 -1 10 5 0 6 5 8 10 5 6 -4 10 -3 9 2 -4 22 2 34
14 27 9 -6 9 -5 -1 8 -10 12 -10 17 1 27 8 6 17 7 22 3 4 -4 4 4 0 17 -5 18
-4 22 6 16 9 -6 11 -4 6 8 -3 9 0 18 9 21 11 4 12 11 6 23 -9 19 9 68 21 56 4
-3 7 -1 7 4 0 6 -6 13 -12 16 -10 3 -10 7 -1 19 10 11 10 17 0 28 -9 10 -9 11
1 6 8 -5 12 3 12 28 0 22 -5 36 -12 36 -10 0 -9 3 1 9 11 7 11 9 0 14 -11 4
-11 6 -1 6 10 1 10 5 -2 17 -9 8 -13 20 -10 26 4 6 2 8 -3 5 -6 -4 -14 0 -17
8 -3 9 -17 20 -31 25 -16 6 -25 17 -25 30 0 12 -4 19 -9 16 -8 -5 -8 22 -1 32
6 7 5 29 -2 44 -5 10 -3 18 5 21 8 4 7 6 -3 6 -11 1 -15 14 -15 55 0 42 3 52
14 48 10 -4 13 -1 8 11 -4 10 3 26 17 42 17 18 26 22 29 13 3 -8 6 -6 6 5 1
10 6 15 11 12 6 -4 18 -1 27 7 12 9 15 9 9 1 -5 -9 -2 -11 8 -7 9 3 14 10 11
14 -3 5 -1 11 5 15 5 3 10 0 10 -7 0 -8 5 -6 11 5 6 10 15 14 22 10 7 -4 6 1
-2 10 -12 15 -12 17 4 10 15 -5 17 -3 12 11 -4 9 -3 15 2 11 5 -3 12 -1 16 5
3 5 1 10 -5 10 -6 0 -8 5 -5 10 4 6 11 8 16 5 5 -4 9 -1 9 5 0 6 5 8 12 4 7
-4 8 -3 4 5 -4 6 -12 9 -17 6 -5 -3 -6 1 -3 9 3 9 10 13 15 10 5 -3 12 8 15
25 4 17 10 28 15 25 5 -3 9 0 9 6 0 6 6 8 13 4 6 -4 4 2 -5 13 -20 22 -24 38
-7 27 8 -5 8 -1 0 13 -6 11 -7 23 -4 27 3 3 1 6 -5 6 -6 0 -10 13 -9 30 1 16
7 30 14 30 6 0 15 5 19 12 4 7 3 8 -4 4 -7 -4 -12 -2 -12 3 0 6 6 11 13 11 8
0 7 4 -3 10 -12 8 -12 10 -1 10 9 0 12 8 9 25 -3 13 -2 22 3 20 4 -3 10 -1 14
5 3 5 0 10 -7 10 -8 1 -6 6 6 15 12 9 15 15 7 15 -8 0 -11 6 -7 15 3 8 1 15
-5 15 -6 0 -7 5 -4 10 4 6 11 8 16 4 5 -3 8 0 7 7 -4 15 51 18 66 4 18 -18 48
-27 41 -12 -4 6 0 4 8 -6 11 -13 17 -15 22 -7 4 7 10 8 14 4 3 -5 17 -15 30
-22 19 -11 22 -11 16 0 -3 7 0 5 8 -4 8 -10 17 -18 20 -18 4 0 4 8 0 18 -5 13
-3 14 7 5 14 -13 43 -6 34 9 -4 6 2 7 16 3 13 -4 20 -3 17 2 -4 5 0 10 7 10 8
0 12 -7 8 -15 -4 -11 -1 -13 8 -7 10 6 12 4 7 -8 -4 -11 -2 -14 7 -11 8 3 17
0 22 -7 5 -8 3 -10 -7 -4 -11 7 -12 6 -2 -7 7 -8 11 -18 8 -21 -3 -4 -2 -5 1
-3 10 7 54 -41 54 -59 0 -8 5 -15 10 -15 6 0 10 -7 10 -16 0 -8 -4 -13 -9 -9
-16 9 -17 -49 -1 -63 9 -8 10 -11 2 -7 -11 6 -11 3 0 -14 7 -12 17 -21 23 -21
5 0 3 -5 -5 -10 -13 -9 -13 -11 0 -20 8 -5 10 -10 3 -10 -7 0 -10 -23 -9 -71
1 -38 -2 -72 -6 -75 -5 -3 -5 -10 -2 -16 4 -6 2 -8 -3 -5 -6 4 -14 0 -17 -9
-3 -8 -10 -13 -14 -10 -5 3 -8 -8 -7 -24 1 -22 -1 -27 -10 -20 -9 8 -11 4 -7
-15 2 -14 8 -28 13 -31 5 -3 5 -14 -1 -25 -8 -13 -7 -19 0 -19 7 0 7 -7 -1
-22 -11 -21 -11 -22 5 -9 9 8 19 11 23 7 3 -3 1 -6 -5 -6 -7 0 -12 -9 -12 -20
0 -11 4 -20 9 -20 5 0 12 -7 15 -16 4 -10 2 -13 -7 -9 -6 4 -4 0 6 -8 10 -8
19 -24 20 -35 0 -11 5 -18 9 -16 5 3 5 10 2 16 -4 7 -2 8 5 4 6 -4 9 -12 6
-17 -4 -5 -1 -9 4 -9 6 0 11 -7 11 -16 0 -10 5 -14 16 -10 8 3 13 2 10 -3 -3
-5 1 -12 10 -15 10 -4 13 -2 9 7 -4 6 0 4 8 -5 8 -10 17 -15 20 -11 4 3 7 -1
7 -10 0 -8 3 -23 7 -33 4 -11 3 -15 -4 -11 -6 4 -14 0 -17 -9 -4 -10 -2 -13 7
-8 8 6 8 3 -1 -9 -8 -9 -11 -21 -7 -26 4 -7 0 -8 -11 -4 -14 5 -15 3 -4 -17
10 -19 10 -22 -2 -17 -11 4 -14 -1 -12 -21 1 -14 -2 -34 -7 -44 -7 -13 -6 -18
2 -18 8 0 8 -4 -1 -15 -10 -12 -10 -15 0 -15 10 0 10 -4 -1 -16 -10 -13 -10
-17 2 -26 11 -7 11 -11 1 -15 -10 -4 -10 -8 0 -21 11 -13 11 -14 -2 -7 -12 7
-13 6 -3 -7 7 -8 9 -18 5 -22 -4 -4 2 -14 12 -22 11 -8 15 -14 9 -14 -6 0 -13
-7 -17 -15 -5 -13 -2 -14 17 -4 19 11 20 10 9 -3 -10 -13 -10 -17 3 -22 10 -4
13 -11 8 -18 -10 -17 -14 -90 -4 -84 4 3 7 -5 6 -17 -1 -12 2 -37 6 -54 5 -26
4 -33 -8 -33 -8 0 -11 -5 -8 -10 4 -6 10 -8 14 -6 3 3 7 -4 7 -14 0 -10 -4
-16 -8 -14 -4 3 -8 0 -8 -6 0 -6 -5 -8 -11 -4 -6 3 -3 -9 7 -27 12 -24 13 -31
3 -22 -12 9 -14 5 -13 -27 0 -22 -3 -37 -8 -34 -4 3 -8 0 -8 -5 0 -6 6 -11 13
-11 8 0 7 -4 -3 -10 -8 -5 -10 -10 -4 -10 6 0 11 -7 11 -15 0 -8 -4 -12 -8 -9
-4 2 -7 -5 -6 -16 1 -11 8 -20 17 -21 9 0 10 -3 3 -5 -8 -4 -9 -14 -3 -34 4
-16 5 -32 2 -36 -4 -4 1 -4 11 -1 12 5 16 3 11 -5 -4 -6 5 -22 22 -36 16 -13
22 -21 14 -16 -13 7 -13 6 -1 -9 11 -14 17 -15 28 -5 8 6 13 7 12 2 -4 -17 13
-44 25 -38 6 3 2 -2 -9 -11 -17 -14 -18 -17 -5 -25 11 -7 11 -10 2 -10 -7 0
-10 -4 -7 -10 3 -5 3 -10 -2 -10 -4 0 -8 -25 -7 -55 0 -32 -3 -50 -8 -43 -4 8
-8 -4 -8 -30 0 -32 -3 -41 -12 -36 -9 5 -9 2 1 -9 11 -14 11 -17 0 -17 -10 0
-10 -3 -2 -11 9 -9 8 -19 -2 -39 -8 -15 -11 -30 -8 -33 3 -4 1 -13 -6 -21 -9
-11 -9 -15 1 -19 10 -4 10 -8 -2 -16 -10 -8 -12 -13 -4 -18 6 -5 11 -24 11
-44 0 -19 3 -41 7 -47 3 -6 -2 -15 -11 -21 -10 -6 -13 -11 -7 -11 6 0 11 -7
11 -15 0 -11 -4 -12 -13 -4 -11 9 -11 5 -4 -20 6 -22 5 -31 -3 -31 -8 0 -7 -4
2 -9 11 -7 10 -10 -5 -14 -18 -4 -18 -5 0 -6 12 -1 16 -6 12 -16 -3 -8 -1 -15
4 -15 6 0 10 -5 10 -11 0 -5 -6 -7 -12 -4 -7 4 -2 -3 12 -15 14 -12 19 -19 13
-15 -7 3 -13 1 -13 -4 0 -11 15 -15 34 -12 5 1 3 -5 -4 -14 -7 -9 -9 -15 -4
-14 5 1 16 1 24 0 13 -1 13 -2 0 -11 -10 -6 -11 -10 -2 -10 6 0 12 -12 12 -28
0 -15 6 -34 13 -41 9 -11 9 -12 0 -7 -17 10 -5 -25 14 -41 10 -8 11 -13 3 -18
-9 -6 -9 -9 -1 -15 7 -4 13 -17 14 -28 1 -12 5 -22 10 -22 5 0 3 -8 -4 -17 -8
-9 -9 -14 -3 -10 6 3 16 -5 23 -20 11 -25 11 -25 -6 -12 -17 13 -17 13 -2 -6
23 -28 30 -75 12 -75 -8 0 -11 -5 -8 -10 4 -6 12 -8 18 -4 7 3 4 -1 -5 -9 -10
-8 -15 -17 -11 -20 3 -4 -1 -9 -10 -13 -9 -3 -14 -11 -11 -18 3 -7 -6 -24 -20
-39 -15 -16 -20 -28 -13 -31 9 -3 8 -5 0 -5 -7 -1 -13 -8 -13 -16 0 -8 -5 -15
-11 -15 -8 0 -8 -4 -1 -13 7 -8 7 -18 2 -27 -14 -22 -12 -42 3 -35 6 4 4 0 -6
-8 -14 -11 -15 -16 -5 -20 10 -4 10 -6 0 -6 -9 -1 -10 -6 -3 -20 8 -14 7 -20
-5 -25 -13 -5 -13 -9 2 -31 9 -14 13 -25 8 -24 -28 5 -36 -1 -24 -16 11 -13
10 -14 -6 -8 -17 6 -17 5 -5 -10 11 -14 11 -17 0 -17 -9 0 -10 -3 -4 -8 16
-11 14 -54 -2 -48 -10 4 -11 1 -4 -11 6 -12 5 -21 -7 -30 -15 -11 -15 -12 -1
-8 10 4 16 0 16 -9 0 -8 -4 -13 -9 -10 -4 3 -8 0 -8 -6 0 -6 -4 -8 -10 -5 -6
4 -7 -1 -3 -11 5 -13 3 -15 -7 -9 -10 6 -12 4 -7 -9 4 -9 3 -15 -1 -12 -4 2
-14 1 -22 -5 -13 -7 -13 -9 0 -9 13 0 13 -2 1 -9 -8 -5 -16 -19 -18 -32 -2
-12 -8 -28 -14 -36 -9 -10 -8 -13 2 -13 11 0 11 -2 -1 -10 -13 -9 -13 -10 0
-10 12 0 13 -2 1 -9 -11 -7 -11 -9 0 -13 11 -4 12 -8 2 -20 -7 -8 -9 -18 -5
-22 4 -4 3 -7 -3 -6 -21 5 -29 -1 -15 -10 12 -8 12 -10 -5 -10 -17 0 -17 -2
-5 -10 9 -6 11 -10 3 -10 -7 0 -10 -7 -7 -15 7 -18 -12 -20 -20 -2 -3 6 -3 0
-1 -15 2 -16 -1 -28 -7 -28 -6 0 -8 -9 -5 -21 4 -17 3 -18 -9 -8 -12 10 -13 9
-9 -3 4 -9 -1 -18 -11 -22 -13 -5 -14 -9 -5 -20 9 -11 8 -17 -3 -29 -11 -11
-12 -17 -3 -26 8 -8 6 -11 -8 -11 -18 0 -18 0 1 -16 18 -15 18 -15 0 -10 -17
6 -17 5 -5 -10 8 -10 13 -26 11 -37 -3 -14 0 -17 10 -11 10 6 10 4 -1 -9 -10
-13 -10 -17 -1 -17 7 0 10 -8 7 -20 -3 -13 3 -26 18 -38 21 -17 21 -19 7 -29
-15 -10 -15 -11 3 -10 11 1 20 -4 20 -11 0 -8 8 -19 17 -26 10 -7 15 -16 11
-19 -3 -4 1 -7 10 -7 15 0 22 -11 18 -32 0 -5 4 -8 10 -8 5 0 7 -4 4 -10 -3
-5 -1 -10 5 -10 6 0 9 -4 6 -9 -4 -5 0 -12 6 -14 8 -3 5 -6 -6 -6 -15 -1 -16
-4 -7 -15 9 -11 9 -16 0 -22 -8 -5 -9 -3 -4 6 5 9 4 11 -4 6 -9 -6 -9 -11 0
-23 10 -12 10 -16 -2 -24 -12 -7 -12 -9 1 -9 13 0 13 -2 1 -9 -13 -8 -13 -12
0 -27 9 -11 9 -15 2 -10 -12 6 -19 -18 -14 -47 9 -49 5 -97 -7 -97 -9 0 -6 -8
9 -21 13 -11 18 -18 12 -14 -14 7 -18 -7 -6 -19 11 -10 12 -37 2 -30 -12 7
-11 -3 2 -28 8 -15 8 -19 0 -14 -6 4 -11 2 -11 -3 0 -6 6 -11 13 -11 8 0 7 -4
-3 -10 -10 -6 -11 -10 -2 -10 6 0 12 -5 12 -11 0 -5 -4 -8 -8 -5 -4 2 -8 -4
-8 -14 0 -10 3 -17 7 -14 12 7 17 -20 7 -39 -6 -12 -5 -17 4 -15 7 2 13 -6 12
-18 0 -11 5 -21 12 -21 7 0 10 5 7 10 -3 6 -1 7 5 3 6 -4 9 -13 5 -21 -3 -8
-1 -15 5 -15 18 0 22 -31 7 -53 -10 -14 -11 -24 -4 -33 7 -8 7 -14 -1 -19 -5
-3 -10 -17 -10 -31 0 -14 -4 -23 -8 -20 -5 3 -7 -12 -6 -32 1 -20 3 -37 4 -37
2 0 6 -18 15 -58 4 -21 2 -27 -6 -21 -9 5 -10 2 -6 -9 4 -10 1 -17 -6 -17 -8
0 -6 -4 3 -10 11 -7 11 -10 2 -10 -7 0 -10 -4 -7 -10 3 -6 2 -10 -2 -10 -5 0
-8 -17 -7 -38 4 -62 8 -77 24 -84 11 -5 10 -7 -5 -7 -16 -1 -17 -3 -6 -10 8
-5 16 -17 17 -25 1 -9 -1 -14 -5 -11 -5 2 -6 -15 -4 -38 3 -23 5 -50 4 -60 0
-9 4 -15 8 -12 5 2 11 -4 14 -15 3 -11 1 -18 -4 -14 -15 9 -10 -8 9 -29 9 -11
11 -17 5 -13 -9 5 -11 2 -7 -8 3 -9 9 -14 13 -12 3 2 6 -7 6 -20 0 -13 -3 -24
-7 -24 -5 0 -8 -5 -8 -11 0 -5 6 -7 13 -3 8 5 8 3 -2 -9 -7 -9 -18 -14 -25
-10 -6 3 -8 3 -4 -2 4 -4 0 -14 -10 -22 -9 -8 -11 -12 -4 -8 6 3 12 1 12 -4 0
-10 -13 -15 -31 -13 -3 1 -4 -11 -1 -25 3 -18 1 -24 -6 -19 -8 5 -10 1 -5 -10
5 -12 3 -15 -6 -9 -10 6 -11 3 -2 -13 8 -15 8 -22 -2 -25 -9 -4 -9 -6 1 -6 7
-1 10 -6 7 -11 -4 -6 -2 -17 5 -25 7 -8 7 -15 1 -19 -12 -8 -2 -38 16 -49 11
-7 11 -12 2 -23 -7 -9 -8 -14 -1 -14 11 0 28 -38 24 -52 -1 -5 3 -8 9 -8 6 0
17 -6 25 -14 11 -11 11 -16 1 -19 -6 -3 -2 -6 9 -6 22 -1 58 -57 48 -73 -3 -4
2 -8 10 -8 12 0 14 -5 6 -26 -6 -14 -6 -23 -1 -20 5 3 12 -1 15 -10 3 -8 2
-12 -4 -9 -6 3 -10 1 -10 -4 0 -6 6 -11 13 -11 8 0 7 -4 -3 -10 -8 -5 -10 -10
-4 -10 7 0 15 -7 18 -16 3 -8 2 -12 -4 -9 -6 3 -10 1 -10 -4 0 -6 8 -11 18
-12 10 0 12 -3 4 -6 -9 -3 -6 -15 10 -46 13 -23 27 -44 31 -45 4 -2 3 -10 -4
-18 -9 -11 -8 -14 2 -14 11 0 11 -2 -1 -10 -12 -8 -12 -10 -1 -10 11 0 11 -3
1 -15 -9 -10 -9 -15 -1 -15 13 0 10 -22 -4 -32 -6 -5 -5 -8 4 -8 11 0 11 -3 1
-15 -7 -8 -9 -15 -4 -15 4 0 -1 -7 -12 -16 -10 -8 -12 -12 -4 -8 10 5 8 -1 -5
-16 -11 -13 -14 -20 -8 -16 10 5 11 1 3 -19 -14 -36 -13 -40 6 -24 12 10 11 4
-4 -23 -15 -26 -17 -38 -9 -42 9 -3 8 -5 -1 -5 -7 -1 -10 -6 -6 -13 5 -8 1 -9
-12 -4 -15 6 -16 4 -7 -5 9 -9 8 -18 -5 -37 -9 -15 -12 -23 -5 -19 6 4 15 2
19 -4 4 -7 3 -9 -2 -6 -6 3 -16 2 -24 -4 -11 -6 -12 -9 -2 -9 7 0 10 -5 7 -10
-4 -6 -11 -8 -16 -5 -5 3 -6 0 -3 -8 8 -23 10 -106 2 -100 -14 8 -8 -10 9 -29
15 -16 15 -18 1 -13 -19 8 -20 -26 -1 -38 10 -6 9 -14 -4 -35 -17 -26 -17 -26
0 -13 10 8 17 10 16 5 -4 -23 2 -34 19 -34 10 0 29 -12 43 -27 l24 -28 -26 23
c-14 12 -29 22 -33 22 -4 0 6 -11 22 -25 17 -14 35 -25 41 -25 6 0 11 -7 11
-15 0 -9 6 -12 16 -8 9 3 20 0 26 -8 7 -11 11 -11 15 -1 2 6 8 10 13 7 5 -3
15 2 23 10 12 11 17 12 20 2 3 -6 6 -2 6 11 1 13 5 20 11 17 6 -3 10 1 10 10
0 10 5 13 12 9 7 -5 9 -2 5 9 -4 12 -2 14 10 10 11 -4 14 -2 9 5 -4 7 -1 12 9
12 9 0 13 5 10 10 -3 6 2 10 12 10 15 0 16 2 3 10 -13 9 -13 10 0 10 13 0 13
1 0 10 -13 8 -12 10 3 10 10 0 15 5 12 10 -4 6 4 20 17 31 13 11 16 18 8 14
-8 -4 -6 0 4 9 10 8 23 13 27 10 5 -3 6 1 3 9 -6 18 24 50 38 41 7 -5 8 -2 3
5 -9 16 15 62 28 54 6 -3 7 -1 3 6 -4 6 -12 9 -17 6 -5 -4 -9 -1 -9 4 0 6 4
11 9 11 5 0 12 7 15 16 4 10 2 13 -7 8 -8 -6 -8 -3 1 9 8 9 11 21 7 27 -3 5 1
10 10 10 9 0 14 4 11 9 -3 5 1 12 10 15 9 4 14 13 10 21 -3 8 0 15 7 15 8 0 6
4 -3 10 -13 9 -13 10 0 10 10 0 11 3 3 8 -8 5 -8 16 2 45 8 22 9 40 3 43 -5 3
-4 13 4 22 10 12 10 14 1 8 -7 -4 -13 -2 -13 3 0 6 6 11 13 11 9 0 8 3 -2 9
-11 7 -11 9 0 14 12 5 12 6 0 6 -11 1 -11 4 0 18 8 9 9 14 3 10 -6 -3 -11 0
-11 8 0 8 5 11 10 8 6 -4 8 0 4 9 -3 9 0 21 6 28 9 9 9 11 1 7 -7 -4 -14 0
-17 8 -4 9 -1 12 9 8 12 -4 13 -1 4 21 -9 24 -8 26 8 17 15 -8 17 -4 18 31 0
23 6 43 15 49 12 7 12 9 0 9 -11 0 -10 4 5 16 10 8 13 13 7 9 -7 -3 -13 -2
-13 4 0 5 -3 16 -6 25 -4 11 0 16 12 16 17 0 16 1 -2 15 -11 8 -14 14 -6 15
10 0 10 5 2 21 -12 22 -6 54 9 45 5 -3 7 4 3 16 -3 14 -1 19 6 14 8 -4 10 -2
6 7 -3 8 -1 18 5 22 15 9 14 28 -1 20 -7 -4 -6 -1 3 7 11 9 13 22 8 46 -3 17
-4 32 0 32 3 0 6 20 6 44 0 24 -3 42 -7 40 -3 -2 -5 3 -4 12 1 8 9 20 17 25
12 7 12 9 0 9 -12 0 -12 2 1 13 20 15 53 86 44 94 -3 3 2 12 12 20 9 8 11 12
5 8 -7 -3 -13 -2 -13 4 0 5 6 12 13 15 9 5 10 7 0 12 -7 3 -13 10 -13 15 0 6
4 8 8 5 5 -3 9 1 9 9 0 8 -7 15 -16 15 -11 0 -12 3 -4 8 8 5 9 13 3 22 -8 13
-10 13 -10 1 0 -8 -3 -12 -6 -9 -3 4 -1 16 5 27 9 17 9 20 -3 15 -11 -4 -14 0
-11 15 2 11 -1 24 -7 27 -7 4 -8 2 -4 -4 4 -7 5 -12 2 -12 -3 0 -10 10 -17 21
-9 17 -8 20 3 14 7 -4 2 3 -12 16 -14 13 -20 20 -13 15 10 -6 12 -4 7 8 -3 9
-12 16 -20 16 -8 0 -13 6 -12 13 2 6 -5 11 -14 11 -10 -1 -18 2 -18 7 0 5 8 9
18 9 14 0 15 2 2 9 -8 6 -18 7 -24 4 -5 -3 -7 -2 -4 3 9 15 -7 89 -19 87 -6
-1 -9 6 -5 19 4 16 2 19 -9 13 -11 -7 -12 -6 -2 7 7 8 10 18 6 21 -3 4 -1 7 6
7 9 0 9 5 0 21 -6 12 -7 19 -1 15 5 -3 13 1 16 10 3 8 2 12 -4 9 -6 -3 -7 1
-4 9 3 9 10 13 15 10 5 -3 9 -1 9 5 0 5 -6 12 -12 14 -10 4 -10 6 0 6 10 1 10
6 2 21 -9 16 -8 20 7 21 12 1 10 3 -7 9 -17 6 -19 8 -7 9 15 1 16 4 6 22 -8
15 -8 19 0 15 6 -4 11 0 11 9 0 9 -5 13 -11 9 -7 -4 -6 3 2 17 14 27 19 70 7
63 -10 -6 -11 10 -1 19 11 12 12 56 1 63 -6 4 -5 10 3 15 12 8 11 11 -1 19
-13 9 -13 10 0 10 12 0 12 2 2 9 -11 6 -11 17 -3 45 9 34 8 36 -7 24 -15 -11
-15 -10 1 8 9 11 14 24 10 28 -4 4 0 4 10 0 12 -4 17 -1 17 10 0 9 6 16 13 16
8 0 7 4 -3 10 -14 9 -7 15 14 11 5 -1 4 5 -4 13 -10 14 -10 16 6 16 11 0 15 4
9 8 -14 10 -17 32 -5 32 6 0 10 5 10 11 0 6 -6 9 -12 6 -9 -3 -13 5 -13 23 0
20 4 26 14 22 9 -3 12 -1 7 6 -4 7 -14 12 -22 12 -8 0 -14 5 -14 11 0 5 4 8 8
5 4 -2 8 6 8 19 0 13 -3 22 -7 19 -4 -2 -10 3 -13 12 -5 12 -2 15 10 10 14 -5
15 -4 5 8 -9 11 -9 16 0 21 8 6 7 10 -2 16 -11 7 -11 9 1 9 13 0 13 1 0 10
-13 9 -13 10 0 10 13 0 13 1 0 10 -13 9 -13 10 0 10 13 0 13 1 0 10 -13 8 -13
10 -1 10 11 0 10 4 -4 14 -18 13 -18 13 1 24 10 6 14 12 7 12 -13 0 -12 25 2
37 4 4 5 2 0 -6 -5 -9 -4 -12 3 -7 6 3 9 18 6 32 -3 15 -1 23 5 20 10 -7 9 13
-2 31 -4 6 -1 14 5 16 10 4 10 6 1 6 -7 1 -13 6 -13 12 0 5 6 7 13 4 6 -4 4 0
-5 8 -20 16 -25 32 -6 21 13 -8 3 11 -21 40 -9 11 -11 16 -5 13 7 -4 14 2 17
14 5 17 3 18 -9 8 -12 -10 -13 -9 -8 5 3 9 11 16 18 16 6 0 4 5 -4 10 -13 8
-13 10 2 10 11 0 15 5 12 14 -3 8 0 17 6 21 8 5 8 11 -1 21 -9 11 -8 14 2 14
11 0 11 2 -1 10 -12 8 -12 10 -1 10 11 0 11 3 0 17 -8 9 -9 14 -3 10 6 -3 11
0 11 8 0 8 -4 12 -8 9 -4 -2 -10 0 -14 6 -3 5 0 10 7 10 9 1 7 5 -4 14 -10 7
-18 18 -18 25 0 6 -6 11 -12 11 -9 0 -8 4 2 10 12 8 12 10 1 10 -11 0 -11 3
-1 15 9 10 9 15 1 15 -6 0 -11 5 -11 11 0 6 8 8 18 5 16 -6 16 -5 -1 8 -14 10
-15 15 -5 19 10 4 10 8 -2 16 -13 9 -12 11 3 11 10 0 15 5 12 11 -4 6 3 20 15
31 12 11 19 27 15 35 -5 14 -3 14 12 2 10 -7 15 -10 11 -5 -4 5 -3 18 3 29 9
15 8 18 -3 12 -7 -5 -3 3 10 17 12 13 19 27 16 31 -4 4 -1 14 6 23 11 12 11
17 2 23 -9 5 -8 12 4 27 8 10 12 13 8 5 -4 -9 -3 -12 4 -7 6 4 8 14 5 23 -4
11 -3 14 5 9 11 -6 14 -1 11 20 0 3 8 12 18 21 10 8 12 12 6 8 -7 -3 -13 -1
-13 4 0 6 5 11 11 11 5 0 7 5 4 10 -3 6 -1 10 6 10 9 0 9 3 0 14 -10 11 -8 17
6 25 16 9 16 12 3 21 -13 9 -13 10 0 10 13 0 13 1 0 11 -12 8 -12 12 -2 16 10
4 10 8 0 21 -11 13 -11 14 1 8 10 -7 12 -3 6 13 -3 12 -3 21 2 20 20 -3 24 2
13 17 -8 8 -9 14 -4 12 5 -2 11 2 13 7 3 6 11 16 18 23 7 8 11 18 8 23 -4 5 1
9 9 9 8 0 18 5 22 12 5 7 2 9 -7 4 -8 -4 -3 2 11 13 14 11 29 21 33 21 5 0 5
4 2 10 -3 6 1 10 10 10 10 0 13 5 9 12 -5 8 -2 9 9 5 9 -3 16 -3 16 1 -4 21 2
42 10 38 5 -3 12 1 15 10 9 22 8 26 -5 19 -6 -4 -5 2 2 13 7 12 17 18 22 15 5
-3 4 4 -3 17 -10 18 -9 24 7 37 10 8 12 12 6 8 -7 -3 -13 -2 -13 4 0 5 6 12
13 14 9 4 8 6 -2 6 -11 1 -11 4 0 18 8 9 9 14 4 11 -6 -4 -11 2 -11 12 0 13 4
16 12 9 8 -7 11 -5 10 8 0 10 -5 21 -11 25 -6 5 -5 8 3 8 7 0 10 5 7 10 -4 6
-12 8 -18 4 -7 -3 -3 1 7 10 17 14 18 16 2 22 -12 5 -14 10 -6 19 8 9 6 14 -5
18 -9 4 -12 13 -8 23 3 9 0 20 -8 25 -11 7 -9 9 6 9 16 0 17 2 5 9 -8 6 -17 8
-21 6 -3 -3 -4 7 -1 22 4 20 2 24 -9 18 -11 -6 -12 -5 -2 5 10 11 9 16 -5 27
-16 12 -15 13 3 7 19 -5 19 -5 1 10 -11 9 -16 22 -12 31 3 10 2 14 -5 10 -6
-4 -9 1 -7 11 2 12 -2 18 -11 16 -12 -3 -12 -1 0 14 9 12 9 15 2 10 -7 -4 -13
-4 -14 1 0 4 -2 20 -3 35 -1 15 -10 36 -21 48 -15 17 -16 23 -6 29 11 7 11 9
1 13 -8 2 -14 12 -16 21 -1 11 2 14 9 10 7 -4 4 5 -5 19 -11 17 -14 29 -8 33
6 3 10 11 10 16 0 6 -4 8 -9 5 -8 -5 -16 12 -26 52 -2 7 2 9 8 5 7 -4 6 1 -2
10 -10 13 -11 20 -2 31 6 8 11 18 10 22 -4 23 2 35 14 28 7 -5 6 0 -3 11 -11
14 -12 19 -2 22 6 3 10 9 6 14 -3 5 -1 9 5 9 5 0 8 9 6 20 -2 11 1 23 7 26 7
5 8 2 3 -6 -6 -9 -4 -11 5 -5 10 6 9 11 -5 22 -12 8 -14 13 -6 13 9 0 12 9 9
25 -4 18 -1 25 10 25 13 0 12 3 -4 16 -10 8 -13 12 -5 8 10 -5 11 -1 6 16 -4
13 -3 20 2 17 5 -3 9 3 9 13 0 10 -3 17 -7 14 -4 -2 -6 12 -6 30 1 27 5 33 19
31 12 -3 15 1 11 12 -4 10 -2 14 4 10 6 -4 16 6 23 23 7 16 15 29 19 28 18 -2
22 3 12 16 -9 11 -9 16 0 22 8 5 10 3 5 -7 -4 -8 0 -5 9 6 9 11 14 30 12 43
-3 18 -1 22 11 17 11 -4 12 -2 4 8 -9 10 -8 17 1 27 10 10 9 11 -3 5 -13 -8
-13 -7 -1 8 10 13 10 17 1 17 -9 0 -9 4 1 17 8 9 9 14 3 10 -7 -4 -15 0 -18 9
-3 8 -2 12 4 9 6 -3 10 -1 10 4 0 6 -4 11 -10 11 -5 0 -6 7 -3 17 5 12 3 14
-8 8 -12 -7 -12 -6 -1 7 9 12 10 18 2 23 -7 4 -10 15 -7 25 2 10 1 24 -4 31
-4 7 -3 19 3 26 7 9 6 14 -6 19 -19 7 -21 30 -3 37 7 3 5 6 -5 6 -11 1 -16 8
-13 21 2 11 0 20 -6 20 -5 0 -9 8 -9 18 0 10 -7 27 -15 39 -10 15 -12 24 -5
28 7 5 5 12 -7 21 -13 9 -14 13 -4 14 11 0 11 3 0 17 -12 14 -12 16 0 8 11 -6
13 -4 8 8 -3 10 -2 17 4 17 6 0 8 4 4 10 -3 5 -1 18 5 30 5 11 15 29 21 41 6
12 6 19 1 15 -5 -3 -9 1 -9 9 0 8 3 14 6 13 19 -2 24 4 11 12 -12 8 -12 10 5
11 l20 0 -20 9 c-11 5 -14 9 -7 9 6 1 12 6 12 12 0 5 -3 8 -7 6 -5 -3 -7 17
-6 44 1 35 -3 49 -12 49 -9 0 -12 8 -10 20 3 15 -1 20 -13 18 -10 -2 -18 5
-20 17 -3 11 -13 27 -23 36 -21 18 -27 54 -6 43 9 -5 9 -4 0 6 -14 16 4 63 21
53 6 -4 5 0 -2 9 -10 13 -10 17 0 21 10 4 10 8 -2 16 -13 10 -13 11 0 11 13 0
13 1 0 10 -12 8 -13 11 -1 19 11 7 11 9 0 14 -11 4 -11 6 -1 6 10 1 10 6 1 24
-7 12 -11 24 -10 25 2 2 -1 7 -5 10 -4 4 -4 1 1 -7 6 -10 4 -12 -4 -7 -9 6 -9
11 -1 21 8 10 8 15 -1 21 -8 5 -10 3 -4 -7 5 -8 4 -10 0 -6 -13 11 -15 37 -3
37 6 0 5 6 -2 15 -11 13 -10 14 5 9 13 -5 16 -4 11 4 -4 8 0 12 11 13 11 0 13
3 5 6 -10 4 -9 9 5 19 17 13 17 14 -2 8 -17 -5 -18 -4 -5 8 15 13 22 31 23 56
0 7 6 11 14 8 7 -3 12 -2 12 2 -3 21 3 32 17 32 8 0 12 5 8 11 -4 8 -1 8 12 1
11 -6 22 -10 27 -11 4 -1 8 -1 10 -2 20 -6 36 -5 31 2 -3 5 0 9 5 9 6 0 11 -4
11 -9 0 -5 11 -8 24 -7 13 0 22 4 19 9 -2 4 1 7 6 7 6 0 11 -4 11 -8 0 -11 56
-9 67 2 5 5 2 6 -6 1 -10 -6 -12 -4 -6 4 5 9 12 7 26 -8 24 -26 30 -27 22 -3
-3 9 9 1 26 -18 18 -19 39 -34 47 -32 8 2 17 -4 21 -13 5 -13 7 -14 14 -3 7
10 9 11 9 0 0 -8 5 -10 12 -6 8 5 9 2 4 -11 -5 -15 -4 -16 8 -6 11 9 15 9 19
-1 4 -10 6 -9 6 1 1 11 5 10 17 -5 8 -10 12 -12 8 -4 -7 13 -6 13 10 1 15 -13
19 -13 27 0 7 11 9 10 10 -6 0 -11 3 -14 6 -7 2 6 9 12 14 12 6 0 7 -4 4 -10
-7 -12 23 -2 44 14 11 8 13 8 8 0 -3 -6 0 -11 8 -11 8 0 11 5 8 10 -4 6 5 8
20 5 17 -3 24 -1 20 5 -4 6 0 8 9 4 9 -3 21 0 27 6 8 8 11 8 11 -2 0 -7 6 -11
14 -8 8 3 20 -1 26 -9 7 -8 21 -14 32 -14 12 0 17 -4 12 -12 -6 -10 -4 -10 7
0 16 14 33 16 24 2 -3 -5 1 -10 10 -10 9 0 13 -4 10 -10 -3 -5 -1 -10 6 -10 8
0 8 -4 -1 -15 -10 -12 -9 -16 4 -21 19 -7 22 -54 4 -54 -9 0 -8 -4 2 -10 8 -5
10 -10 4 -10 -6 0 -11 -7 -11 -15 0 -10 4 -12 11 -5 9 6 10 -8 6 -51 -3 -33
-2 -63 2 -65 5 -3 2 -15 -6 -26 -8 -11 -12 -27 -9 -36 4 -9 2 -13 -3 -9 -6 3
-9 -7 -8 -26 1 -17 7 -33 13 -35 6 -2 8 -9 4 -15 -11 -18 -12 -38 -2 -31 5 3
9 2 10 -3 4 -47 3 -63 -6 -63 -5 0 -3 -5 5 -10 12 -8 12 -10 -5 -10 -16 0 -17
-2 -5 -10 12 -7 10 -11 -10 -19 -14 -5 -19 -10 -11 -10 11 -1 11 -4 0 -18 -9
-11 -10 -14 -2 -9 9 5 11 2 7 -8 -3 -9 -11 -16 -16 -16 -6 0 -5 -6 2 -15 9
-11 9 -15 1 -15 -9 0 -9 -5 -1 -20 9 -16 8 -20 -5 -20 -9 0 -13 -5 -10 -10 4
-6 10 -8 15 -5 4 3 6 -5 2 -17 -3 -13 -1 -19 5 -15 6 4 9 -4 7 -18 -1 -18 3
-25 14 -25 10 0 13 -3 7 -8 -5 -4 -17 -16 -25 -26 -13 -18 -13 -19 0 -11 11 6
12 5 4 -4 -6 -7 -20 -13 -31 -14 -12 0 -19 -6 -16 -13 2 -6 -12 -25 -32 -43
-20 -17 -38 -42 -40 -54 -6 -39 -17 -67 -24 -62 -4 2 -8 -2 -8 -10 0 -8 5 -11
11 -8 6 4 5 -1 -3 -10 -7 -9 -10 -17 -5 -17 5 0 2 -4 -6 -10 -12 -8 -12 -10 3
-16 15 -5 15 -9 5 -22 -10 -12 -10 -14 0 -8 6 4 12 2 12 -3 0 -6 -5 -11 -12
-11 -6 0 -8 -3 -5 -6 4 -4 13 -2 21 5 11 9 14 8 12 -6 0 -11 5 -17 13 -15 12
3 12 0 1 -12 -10 -13 -10 -16 3 -16 8 0 20 -7 27 -15 11 -13 10 -15 -6 -10
-11 4 -9 0 6 -8 14 -9 29 -13 35 -10 5 4 7 3 3 -2 -4 -4 -2 -15 5 -23 10 -13
9 -14 -2 -7 -11 6 -13 4 -8 -8 3 -9 2 -19 -4 -23 -6 -3 -8 -12 -5 -20 3 -8 -1
-14 -9 -14 -7 0 -17 -4 -20 -10 -3 -5 0 -7 7 -5 17 7 20 -36 4 -47 -7 -5 -5
-8 4 -8 13 0 13 -1 0 -10 -9 -6 -11 -13 -5 -17 14 -11 18 -36 5 -28 -7 4 -9
-2 -6 -19 3 -17 1 -23 -8 -20 -10 4 -13 -7 -12 -40 1 -35 -2 -42 -11 -34 -9 7
-8 -1 3 -27 8 -20 11 -34 5 -31 -5 3 -7 -3 -4 -14 3 -11 9 -18 12 -15 4 2 8
-1 9 -8 4 -39 9 -53 22 -64 9 -7 10 -12 4 -13 -8 0 -9 -11 -4 -34 4 -19 5 -37
2 -40 -3 -4 0 -6 6 -6 6 0 9 -7 6 -15 -4 -8 -1 -15 6 -15 10 0 10 -3 1 -14
-10 -12 -8 -13 10 -9 14 4 20 2 16 -5 -8 -12 2 -44 12 -37 4 2 14 -6 22 -17 8
-12 21 -28 31 -36 9 -9 14 -25 12 -38 -3 -14 0 -24 7 -24 7 0 10 -3 7 -6 -4
-3 4 -21 17 -40 18 -27 22 -41 15 -58 -6 -16 -5 -28 3 -35 7 -7 8 -12 2 -11
-21 4 -25 -1 -16 -19 8 -14 7 -22 -4 -31 -8 -7 -12 -17 -8 -23 4 -7 -1 -8 -13
-4 -18 7 -18 7 0 -8 12 -9 15 -15 7 -15 -9 0 -12 -9 -8 -26 3 -17 1 -24 -7
-21 -7 3 -12 -5 -12 -18 0 -13 3 -22 6 -20 3 2 6 -5 6 -16 0 -13 -5 -18 -16
-14 -9 3 -7 -1 5 -11 19 -14 19 -16 2 -25 -13 -8 -15 -14 -7 -30 8 -14 7 -19
-2 -19 -9 0 -9 -3 2 -10 13 -9 13 -10 0 -10 -13 0 -13 -1 0 -10 13 -9 13 -10
0 -10 -11 -1 -11 -3 3 -11 18 -10 18 -11 0 -25 -12 -10 -14 -13 -3 -12 8 2 14
-1 15 -7 0 -5 4 -15 8 -22 4 -6 3 -14 -3 -18 -6 -4 -5 -12 5 -21 8 -9 13 -20
10 -25 -4 -5 -1 -9 6 -9 7 0 9 -3 6 -7 -4 -3 1 -12 11 -20 9 -8 12 -12 5 -9
-19 10 -8 -25 12 -40 14 -10 15 -14 4 -14 -10 -1 -10 -3 3 -11 11 -6 15 -16
11 -26 -5 -12 -3 -14 7 -8 10 6 12 4 7 -8 -4 -10 -1 -17 6 -17 7 0 8 -3 2 -8
-9 -6 -10 -19 -6 -75 1 -12 5 -16 14 -11 9 6 9 5 0 -8 -7 -8 -10 -18 -6 -22
12 -12 12 -36 0 -36 -8 0 -7 -3 2 -9 9 -6 10 -11 2 -15 -8 -5 -7 -11 3 -21 15
-15 10 -65 -8 -77 -7 -5 -7 -8 -1 -8 6 0 11 -9 11 -19 0 -11 -4 -17 -8 -15
-11 7 -10 -4 3 -28 8 -15 8 -19 0 -14 -6 4 -11 2 -11 -3 0 -6 5 -11 12 -11 9
0 9 -3 0 -12 -14 -14 -16 -32 -4 -24 5 3 9 -1 9 -9 0 -8 -7 -15 -15 -15 -12 0
-12 -2 -1 -17 10 -11 10 -14 2 -9 -16 9 -16 1 -2 -26 6 -12 7 -18 1 -14 -14 8
-21 -28 -9 -49 7 -13 6 -16 -2 -11 -6 4 -11 3 -11 -3 0 -5 6 -12 13 -14 9 -4
8 -8 -3 -16 -13 -10 -13 -12 -1 -20 12 -8 12 -12 2 -25 -9 -11 -10 -16 -2 -16
7 0 11 -26 11 -76 0 -47 -4 -73 -10 -69 -5 3 -10 1 -10 -4 0 -6 5 -11 11 -11
8 0 7 -6 -2 -17 -12 -14 -12 -16 1 -9 8 4 4 -2 -10 -14 -14 -12 -20 -19 -13
-16 6 4 14 2 18 -4 3 -5 0 -10 -7 -10 -9 0 -9 -3 2 -10 8 -5 10 -10 4 -10 -8
0 -9 -11 -4 -35 5 -22 4 -35 -2 -35 -6 0 -5 -6 2 -15 10 -12 10 -15 -1 -15
-11 0 -11 -2 1 -10 11 -7 11 -10 2 -10 -10 0 -10 -5 -1 -22 12 -22 11 -22 -6
-8 -13 10 -16 11 -11 2 5 -8 1 -19 -10 -28 -11 -9 -13 -13 -7 -9 9 4 11 1 7
-9 -3 -9 -10 -14 -14 -11 -5 3 -12 0 -16 -6 -3 -6 0 -15 7 -20 12 -7 11 -9 -1
-10 -8 -1 -19 -1 -23 0 -5 1 -6 -2 -3 -7 3 -5 -1 -18 -8 -28 -10 -14 -11 -23
-4 -32 8 -10 7 -11 -7 -6 -12 5 -16 4 -12 -3 10 -16 -3 -44 -17 -37 -6 3 -2
-2 9 -11 17 -14 18 -17 5 -25 -13 -9 -13 -11 -1 -19 8 -5 11 -16 8 -24 -3 -9
3 -25 14 -38 24 -28 25 -36 2 -18 -17 13 -17 13 0 -7 9 -11 14 -24 10 -27 -3
-4 -1 -7 6 -7 7 0 10 -4 6 -9 -3 -5 2 -17 12 -26 12 -13 14 -21 6 -34 -6 -9
-9 -29 -8 -44 2 -15 -1 -25 -6 -21 -5 3 -6 10 -3 16 4 7 2 8 -4 4 -9 -5 -9
-13 -2 -26 7 -13 7 -21 0 -25 -6 -4 -8 -11 -5 -16 11 -17 14 -50 4 -44 -5 4
-9 1 -9 -4 0 -6 5 -11 10 -11 6 0 10 -5 10 -11 0 -5 -4 -7 -10 -4 -5 3 -10 1
-10 -4 0 -6 -7 -11 -16 -11 -8 0 -12 -4 -9 -10 3 -5 1 -10 -5 -10 -6 0 -9 -4
-6 -9 3 -5 -1 -11 -9 -15 -8 -3 -15 -13 -15 -21 0 -9 -5 -13 -11 -9 -8 4 -9 0
-4 -15 4 -15 3 -21 -7 -19 -7 2 -12 -3 -11 -9 2 -7 -2 -13 -8 -13 -8 0 -7 -5
1 -15 11 -13 10 -14 -3 -9 -20 7 -17 -24 4 -37 9 -6 10 -9 2 -9 -7 0 -10 -7
-7 -15 4 -8 11 -12 17 -8 6 3 7 1 3 -6 -6 -9 -12 -9 -24 1 -12 9 -11 6 2 -10
19 -22 19 -22 0 -23 -16 0 -15 -2 5 -10 18 -7 21 -12 12 -23 -8 -9 -8 -15 -2
-18 6 -1 12 -19 14 -38 3 -19 9 -35 15 -35 6 0 14 -4 19 -9 4 -5 3 -6 -4 -2
-6 3 -14 2 -18 -4 -3 -5 1 -10 9 -10 10 0 13 -6 9 -17 -4 -11 -3 -14 5 -9 8 5
10 2 6 -8 -3 -9 -1 -16 6 -16 6 0 8 -5 4 -12 -4 -6 1 -17 11 -25 11 -7 13 -13
7 -13 -7 0 -12 -5 -12 -11 0 -5 4 -8 9 -5 5 3 11 -1 15 -9 3 -8 1 -15 -5 -15
-6 0 -8 -4 -5 -9 4 -5 0 -12 -6 -14 -10 -4 -9 -8 2 -16 12 -8 12 -11 1 -11 -9
0 -12 -9 -9 -29 2 -17 1 -28 -4 -25 -4 3 -8 -2 -8 -11 0 -10 -5 -14 -12 -10
-7 4 -4 -1 7 -10 17 -14 18 -17 5 -25 -13 -9 -13 -11 0 -20 13 -9 13 -10 0
-10 -12 0 -12 -2 -1 -9 9 -6 10 -11 2 -15 -6 -4 -11 -12 -11 -17 0 -6 4 -7 10
-4 6 3 7 -1 4 -9 -3 -9 -11 -16 -16 -16 -6 0 -6 -5 1 -14 9 -11 8 -17 -4 -29
-11 -12 -12 -16 -2 -20 8 -3 6 -10 -7 -26 -16 -18 -17 -21 -3 -16 12 5 15 2
12 -14 -2 -12 -7 -26 -10 -31 -3 -6 -1 -10 5 -10 6 0 8 -5 5 -10 -4 -6 -10 -8
-14 -6 -4 3 -8 -1 -8 -9 0 -8 4 -12 8 -9 4 2 13 -5 19 -17 10 -17 9 -20 -2
-14 -7 3 -5 0 6 -9 11 -9 16 -21 12 -32 -5 -12 -2 -15 11 -10 15 5 15 4 -1 -9
-14 -11 -16 -15 -5 -15 11 0 11 -2 1 -9 -11 -6 -10 -10 3 -15 14 -5 15 -9 5
-21 -7 -8 -8 -15 -3 -15 5 0 10 -7 10 -15 0 -9 -6 -14 -14 -11 -8 3 -11 1 -8
-4 3 -6 14 -10 23 -11 10 0 12 -3 5 -6 -9 -3 -10 -10 -3 -23 7 -13 6 -20 -3
-23 -8 -4 -8 -6 2 -6 11 -1 10 -5 -5 -16 -10 -8 -14 -15 -9 -14 22 3 35 -1 35
-12 0 -5 -5 -7 -12 -3 -7 4 -8 3 -4 -4 4 -7 15 -12 24 -12 15 0 15 -2 2 -10
-13 -8 -12 -10 4 -10 18 0 56 -35 56 -52 0 -4 5 -8 11 -8 5 0 7 6 3 13 -4 6 3
2 15 -11 12 -12 20 -26 16 -31 -4 -8 16 -8 35 -1 3 1 8 2 13 1 4 0 7 4 7 10 0
5 5 7 10 4 6 -3 10 -2 10 4 0 6 7 8 15 5 11 -4 13 -2 9 9 -4 12 -1 14 14 10
11 -2 23 1 27 8 6 8 4 10 -5 4 -9 -5 -11 -4 -6 4 6 9 12 9 24 -1 10 -7 14 -8
10 -4 -4 5 -2 16 5 24 10 13 9 14 -2 7 -10 -5 -12 -4 -7 3 4 7 14 12 23 12 13
0 13 3 3 15 -11 13 -10 14 5 9 13 -5 16 -4 11 4 -4 7 -2 12 4 12 6 0 8 5 5 10
-3 6 2 10 12 10 15 0 16 2 3 10 -8 5 -10 10 -4 10 17 0 26 43 11 52 -9 5 -9
10 1 20 16 16 16 58 0 58 -9 0 -8 4 2 10 8 5 10 10 4 10 -11 0 -14 15 -14 60
0 20 -2 22 -10 10 -5 -8 -10 -10 -10 -5 0 6 7 20 15 31 8 12 11 25 7 30 -4 5
0 3 8 -3 13 -10 16 -8 16 7 0 10 -5 16 -11 14 -5 -3 -2 1 8 9 9 8 17 22 17 31
0 9 5 16 11 16 5 0 7 6 3 13 -6 9 -4 9 8 -1 14 -11 16 -10 11 9 -5 16 -3 20 6
14 10 -6 11 -3 1 16 -7 13 -9 21 -5 17 12 -12 34 15 23 29 -7 8 -3 16 11 24
16 11 18 17 9 33 -10 18 -9 19 4 8 14 -11 15 -8 13 18 -2 24 0 28 10 20 10 -8
13 -4 11 19 -1 16 1 28 5 25 9 -5 21 25 13 37 -3 5 2 9 11 9 9 0 13 4 10 10
-3 6 -1 10 5 10 6 0 9 4 6 8 -3 5 4 16 15 26 12 9 18 24 15 32 -4 12 -2 12 14
4 18 -10 19 -9 10 16 -9 23 -9 25 4 15 13 -11 15 -9 11 9 -3 16 0 20 11 16 10
-4 13 -2 7 7 -12 19 -12 38 -1 31 7 -5 9 4 6 25 -4 26 -2 31 11 26 14 -4 14
-4 1 7 -8 7 -14 23 -12 36 2 12 -1 22 -6 22 -5 0 -8 11 -7 25 2 14 -2 25 -8
25 -8 0 -7 3 1 9 11 6 10 11 -3 25 -9 9 -12 16 -7 16 5 0 9 7 9 15 0 8 -5 15
-10 15 -5 0 -3 8 4 17 12 15 12 16 -1 8 -13 -8 -13 -7 -1 8 12 16 8 22 -12 18
-5 -1 -6 3 -2 9 3 6 11 8 16 5 5 -4 9 -1 9 4 0 6 -5 11 -11 11 -8 0 -8 4 0 13
8 10 7 17 -1 25 -8 8 -8 12 -1 12 16 0 23 51 8 56 -13 5 -14 28 -2 40 4 4 2
13 -4 21 -9 10 -7 13 6 13 14 0 15 3 5 15 -10 12 -9 15 6 16 11 0 14 3 7 6 -7
2 -13 9 -13 15 0 6 6 8 14 5 10 -4 14 0 11 13 -2 10 3 21 11 24 16 6 15 36 -1
48 -6 5 -6 8 2 8 6 0 9 9 5 22 -4 15 -2 19 7 13 7 -4 5 4 -4 19 -17 25 -16 26
1 27 18 0 18 1 -1 9 -13 6 -15 9 -5 9 13 1 13 2 0 11 -13 9 -13 10 0 10 9 0
11 3 4 8 -17 12 -23 39 -11 51 8 8 8 11 -1 11 -7 0 -10 12 -7 30 2 17 0 28 -5
25 -13 -8 -18 18 -7 40 9 18 8 18 -6 7 -14 -12 -16 -11 -12 8 2 12 -2 23 -11
27 -8 3 -13 12 -10 19 3 8 1 14 -5 14 -6 0 -7 5 -4 10 4 6 10 8 15 5 4 -3 6 5
2 17 -4 16 -2 20 10 15 11 -4 15 0 13 11 -3 24 16 62 31 62 14 0 37 58 27 73
-4 6 -1 7 7 2 10 -6 12 -3 8 13 -4 12 -3 20 2 17 4 -3 11 2 14 11 3 8 2 12 -4
9 -6 -3 -7 1 -4 9 3 9 11 13 18 9 6 -4 5 1 -3 10 -11 13 -11 17 -1 17 8 0 10
3 7 7 -4 3 -2 12 4 20 9 10 7 13 -7 13 -18 1 -18 1 -1 11 9 6 15 15 12 20 -4
5 -11 6 -17 3 -7 -5 -8 -2 -4 5 5 7 15 10 25 6 10 -4 8 1 -6 15 -23 21 -32 47
-12 34 6 -3 3 8 -6 26 -12 23 -13 30 -3 24 10 -6 11 -5 1 8 -7 8 -10 18 -6 21
3 4 -2 7 -13 7 -16 0 -17 2 -4 10 13 9 7 14 -12 11 -4 0 -5 6 -2 13 3 8 -4 19
-16 26 -15 8 -19 15 -12 22 12 12 4 50 -9 42 -5 -3 -7 9 -5 25 2 17 0 31 -3
31 -4 0 -7 9 -8 20 -1 13 2 18 9 14 7 -5 8 -2 4 5 -5 7 0 19 10 27 18 15 18
15 -1 10 -18 -5 -18 -5 -4 6 9 7 15 21 13 30 -1 12 3 15 14 10 15 -5 15 -3 4
10 -11 14 -10 18 5 27 10 6 14 11 8 11 -5 0 -3 5 5 10 11 7 11 10 2 10 -7 0
-10 5 -7 10 4 6 12 7 18 3 7 -4 5 2 -3 12 -8 10 -10 16 -5 13 11 -6 29 10 31
27 4 34 18 56 33 51 11 -4 10 -2 -3 9 -11 8 -15 15 -8 15 6 0 9 7 5 17 -4 11
-3 14 5 9 7 -4 12 -2 12 4 0 17 32 84 44 92 7 5 6 8 -2 8 -7 0 -10 5 -7 10 4
6 12 7 18 3 7 -3 3 4 -7 16 -15 16 -16 20 -5 16 13 -5 15 1 12 27 -3 18 -7 40
-10 48 -12 31 -9 50 8 55 11 4 16 12 12 20 -3 8 -10 12 -15 9 -6 -4 -2 6 8 22
13 18 14 25 5 20 -10 -6 -12 -5 -7 3 10 16 15 61 7 61 -6 0 -11 31 -14 78 0 6
-7 12 -16 13 -11 0 -12 2 -3 6 9 3 6 10 -10 24 -21 19 -36 55 -17 43 5 -3 9 0
9 5 0 6 -4 11 -9 11 -5 0 -11 9 -14 21 -4 14 -10 18 -19 13 -7 -4 -10 -4 -6 1
9 9 -18 63 -46 92 -35 35 -45 51 -39 57 4 3 -2 6 -13 7 -10 0 -14 3 -7 6 9 3
7 11 -7 26 -11 11 -20 26 -20 31 0 6 5 4 10 -4 6 -9 10 -10 10 -3 0 6 -5 15
-11 19 -6 3 -9 15 -6 25 3 11 0 19 -6 19 -7 0 -5 5 3 10 11 7 11 10 2 10 -7 0
-10 5 -7 10 4 6 10 8 14 6 4 -3 8 1 8 9 0 8 -4 12 -9 9 -4 -3 -5 2 -2 10 3 9
13 16 21 16 8 0 11 5 8 10 -4 6 -12 7 -18 3 -8 -5 -8 -2 0 9 7 8 9 19 5 24 -4
4 1 2 11 -5 16 -13 17 -12 8 12 -7 18 -7 28 1 33 7 5 8 3 3 -6 -5 -8 -4 -11 3
-7 5 4 8 17 4 29 -4 16 -2 19 9 13 8 -5 11 -5 7 0 -4 4 -2 15 5 23 10 13 9 14
-3 7 -13 -8 -13 -7 -1 8 9 12 10 17 2 17 -8 0 -9 5 -1 19 6 13 7 22 0 26 -14
9 0 35 19 35 14 0 14 2 1 10 -13 9 -13 10 0 10 13 0 13 1 0 10 -11 7 -12 10
-2 10 8 0 13 10 12 23 -3 38 0 48 12 41 7 -5 8 -3 3 7 -5 7 -10 20 -11 29 -2
8 -5 24 -8 35 -2 11 -5 23 -5 28 -1 4 -8 7 -17 7 -8 0 -12 5 -9 10 3 6 -1 10
-10 10 -10 0 -13 5 -9 12 5 7 2 9 -9 5 -11 -4 -14 -2 -11 7 3 7 -2 16 -12 20
-13 5 -14 9 -4 21 10 12 10 15 -1 15 -12 0 -12 2 0 9 10 6 12 19 8 40 -4 20
-3 30 3 26 6 -3 7 1 4 9 -3 9 -10 14 -15 11 -4 -3 -6 5 -3 17 10 46 11 67 3
62 -5 -3 -9 -1 -9 5 0 5 5 13 10 16 8 5 7 11 -1 21 -10 12 -9 13 5 8 12 -5 15
-2 10 10 -3 9 -11 16 -18 16 -6 0 -4 5 4 10 13 9 13 10 0 10 -13 0 -13 1 0 10
13 8 13 10 -1 15 -9 3 -14 18 -14 43 1 41 12 65 26 57 5 -3 6 1 3 9 -3 9 -11
13 -17 9 -6 -3 -7 -1 -3 6 4 6 12 9 17 6 5 -4 9 -1 9 5 0 6 5 8 12 4 6 -4 8
-3 5 3 -3 5 3 17 14 27 13 11 19 25 16 37 -3 10 -1 17 3 14 9 -6 26 34 21 50
-1 6 0 7 4 3 4 -4 13 -2 20 5 10 9 9 14 -4 24 -11 9 -12 12 -3 13 7 0 11 4 7
9 -3 5 -1 12 4 15 10 7 9 25 -2 44 -5 7 -3 12 5 12 9 0 9 3 -2 10 -9 6 -10 10
-3 10 6 0 10 9 8 19 -3 15 0 18 13 14 15 -6 16 -5 2 12 -10 13 -11 16 -2 11 9
-6 12 -3 10 10 -2 11 2 18 10 16 11 -2 16 13 15 45 -1 7 4 10 9 7 6 -4 8 2 3
15 -4 13 -2 21 6 21 9 0 9 3 0 14 -9 11 -8 17 7 28 11 7 20 17 20 21 0 5 4 12
8 15 4 4 4 1 -1 -7 -5 -9 -3 -12 6 -9 8 3 13 11 11 17 -1 6 6 11 15 12 10 0
13 3 6 6 -10 3 -10 7 0 18 7 7 17 10 22 7 6 -3 3 3 -5 13 -9 11 -10 16 -2 11
11 -6 18 18 13 47 -1 4 6 10 14 13 11 5 12 11 4 25 -8 15 -6 19 8 20 16 0 16
1 -2 9 -11 5 -14 9 -7 9 10 1 10 6 1 22 -8 15 -8 19 0 15 6 -4 16 4 23 18 6
14 16 26 21 26 5 0 4 7 -3 15 -12 15 -11 16 12 19 6 0 12 10 14 21 2 11 11 26
21 33 10 7 17 18 15 23 -1 6 4 19 12 31 8 11 12 27 9 36 -4 8 -2 13 3 10 5 -4
9 7 9 22 1 16 -3 26 -7 24 -4 -3 -8 8 -8 23 0 17 -8 33 -20 41 -11 7 -20 21
-20 32 0 11 -4 20 -8 20 -5 0 -9 7 -9 14 0 8 3 15 6 14 19 -2 24 4 11 12 -8 5
-10 10 -4 10 8 0 9 11 4 35 -5 23 -4 35 3 35 7 0 7 4 -1 12 -16 16 -15 31 1
22 9 -6 9 -5 0 8 -7 8 -10 18 -6 21 3 4 1 7 -5 7 -7 0 -12 8 -12 18 0 10 -6
24 -12 30 -10 10 -10 15 0 21 11 7 10 10 -3 15 -9 3 -13 11 -9 17 4 8 3 9 -4
5 -7 -4 -12 0 -13 11 0 10 -3 13 -6 6 -3 -10 -7 -10 -18 0 -7 7 -11 15 -8 20
2 4 -2 7 -9 7 -8 0 -14 9 -15 20 -1 12 3 18 9 14 6 -4 5 3 -2 16 -11 21 -10
22 6 16 18 -6 18 -5 2 8 -19 14 -25 32 -8 21 5 -3 3 7 -5 22 -11 21 -12 29 -2
35 8 5 5 8 -8 8 -17 0 -17 2 -5 10 13 8 12 10 -4 10 -11 0 -17 3 -13 6 7 7
-17 34 -31 34 -5 0 -16 8 -23 18 -13 16 -13 16 6 2 19 -14 19 -14 6 3 -10 13
-17 15 -27 6 -11 -9 -16 -6 -23 12 -5 13 -10 18 -10 10 -1 -9 -8 -6 -21 9 -11
12 -17 27 -14 31 3 5 -2 9 -11 9 -9 0 -13 5 -10 10 3 6 1 10 -4 10 -6 0 -11 8
-11 17 0 9 -3 14 -6 11 -3 -4 -18 7 -34 23 -19 21 -30 26 -33 17 -4 -10 -6
-10 -6 0 -1 6 -10 12 -22 12 -11 0 -18 4 -15 8 3 5 -1 9 -9 9 -8 0 -12 -3 -10
-7 2 -3 -5 -6 -15 -6 -10 0 -17 4 -14 7 2 4 0 10 -6 14 -5 3 -10 0 -10 -7 0
-9 -3 -9 -10 2 -5 8 -10 11 -10 5 0 -5 -15 -10 -34 -10 -19 0 -34 2 -34 5 1
18 -4 21 -17 10 -12 -10 -14 -8 -10 9 3 15 0 18 -12 14 -13 -5 -15 -2 -10 13
7 18 6 18 -7 1 -13 -16 -14 -16 -20 -1 -4 9 -9 14 -13 11 -3 -4 -11 -3 -17 2
-20 14 -48 22 -40 10 3 -6 -6 -3 -21 7 -33 22 -58 27 -48 11 4 -7 1 -7 -9 1
-12 9 -18 10 -23 2 -5 -8 -10 -8 -20 0 -10 8 -15 8 -21 -1 -5 -8 -3 -9 6 -4 8
5 11 3 8 -6 -3 -8 -11 -13 -17 -11 -6 1 -14 -5 -17 -13 -3 -8 -10 -12 -15 -9
-9 5 -13 -10 -10 -30 1 -5 -4 -4 -12 3 -12 9 -16 8 -21 -5 -3 -9 -13 -14 -21
-11 -10 4 -12 1 -8 -10 5 -12 2 -15 -10 -10 -9 3 -17 2 -17 -4 0 -6 -8 -5 -21
2 -12 6 -19 7 -15 1 3 -5 -1 -13 -10 -16 -9 -3 -12 -2 -8 5 3 6 -3 5 -14 -2
-12 -7 -19 -17 -16 -21 3 -4 -1 -5 -9 -2 -8 3 -17 -2 -20 -10 -4 -9 -14 -16
-23 -16 -11 0 -14 -5 -10 -17 4 -10 4 -14 0 -11 -11 12 -46 -12 -40 -28 3 -8
1 -14 -5 -14 -6 0 -8 -4 -4 -9 3 -5 1 -12 -5 -16 -5 -3 -10 -15 -10 -26 0 -11
-7 -22 -15 -25 -8 -4 -12 -10 -9 -15 3 -5 0 -17 -6 -26 -10 -16 -11 -16 -6 -1
4 13 1 15 -12 11 -9 -3 -23 -11 -31 -17 -11 -8 -13 -8 -7 2 4 6 3 12 -1 12 -5
0 -15 -6 -22 -12 -8 -7 -11 -8 -8 -2 3 6 -1 11 -9 11 -9 0 -13 -6 -10 -14 3
-8 1 -11 -4 -8 -6 3 -10 0 -10 -7 0 -8 -3 -9 -8 -3 -11 17 -28 12 -61 -17 -17
-16 -36 -28 -42 -28 -5 0 -8 -4 -5 -8 3 -5 -1 -9 -9 -9 -8 0 -12 4 -9 9 3 4 0
8 -5 8 -6 0 -11 9 -11 20 0 11 -5 20 -11 20 -5 0 -7 5 -4 10 3 6 -1 10 -11 10
-13 0 -14 3 -5 14 9 11 8 14 -6 12 -12 0 -17 5 -17 17 2 13 -1 15 -11 7 -10
-8 -15 -6 -20 10 -6 20 -7 21 -21 3 -13 -17 -14 -17 -7 1 4 12 2 17 -4 13 -5
-3 -22 0 -37 8 -14 8 -24 11 -22 6 3 -4 -1 -8 -7 -8 -7 0 -14 9 -14 19 -1 11
3 16 10 12 7 -3 1 5 -13 17 -16 14 -19 20 -8 16 12 -4 15 -2 11 9 -3 7 -9 14
-15 14 -5 0 -7 4 -4 8 3 5 -4 16 -15 26 -12 9 -18 23 -15 31 3 10 0 12 -11 8
-9 -4 -14 -2 -10 3 3 6 -4 16 -16 24 -21 12 -21 12 -7 -5 14 -18 13 -18 -12 0
-15 11 -28 23 -28 27 0 4 -7 5 -15 2 -10 -4 -15 0 -15 12 0 17 -1 16 -15 -2
-11 -13 -13 -14 -9 -3 3 10 -1 19 -11 23 -11 4 -14 2 -9 -7 6 -9 5 -9 -8 0 -8
7 -18 10 -21 6 -4 -3 -7 -1 -7 4 0 6 3 13 8 16 4 2 1 2 -6 0 -8 -1 -31 15 -53
37 -22 22 -44 40 -50 40 -16 0 -39 27 -31 35 4 4 -3 3 -15 -4 -18 -9 -24 -8
-37 11 -15 21 -16 21 -17 3 0 -20 -1 -20 -9 0 -5 11 -9 14 -9 8 -1 -8 -9 -5
-21 7 -11 11 -27 20 -36 20 -10 0 -14 6 -11 14 3 8 -1 17 -10 20 -8 4 -13 12
-10 20 4 10 -3 12 -24 10 -21 -3 -28 0 -23 8 5 7 2 9 -9 5 -12 -4 -14 -2 -10
10 5 12 2 15 -10 10 -11 -4 -17 -1 -17 8 0 9 -10 15 -26 15 -17 0 -23 4 -19
13 4 6 0 4 -8 -5 -15 -19 -32 -25 -22 -8 3 6 1 10 -4 10 -6 0 -11 -4 -11 -10
0 -5 -7 -7 -15 -4 -8 4 -12 10 -9 15 3 5 3 9 0 9 -3 0 -10 -9 -16 -21z m275
-139 c3 -6 -1 -7 -9 -4 -18 7 -21 14 -7 14 6 0 13 -4 16 -10z m1515 -150 c0
-5 -2 -10 -4 -10 -3 0 -8 5 -11 10 -3 6 -1 10 4 10 6 0 11 -4 11 -10z m-707
-355 c-3 -9 -8 -14 -10 -11 -3 3 -2 9 2 15 9 16 15 13 8 -4z m354 -741 c-3 -3
-12 -4 -19 -1 -8 3 -5 6 6 6 11 1 17 -2 13 -5z m-3652 -464 c3 -5 1 -10 -4
-10 -6 0 -11 5 -11 10 0 6 2 10 4 10 3 0 8 -4 11 -10z m55 -3420 c0 -5 -2 -10
-4 -10 -3 0 -8 5 -11 10 -3 6 -1 10 4 10 6 0 11 -4 11 -10z m4308 -425 c-3 -3
-9 2 -12 12 -6 14 -5 15 5 6 7 -7 10 -15 7 -18z m-1968 -2029 c0 -3 -4 -8 -10
-11 -5 -3 -10 -1 -10 4 0 6 5 11 10 11 6 0 10 -2 10 -4z"/>
<path d="M3446 8313 c-6 -14 -5 -15 5 -6 7 7 10 15 7 18 -3 3 -9 -2 -12 -12z"/>
<path d="M7717 8289 c-10 -11 -23 -17 -29 -13 -7 5 -8 3 -3 -6 6 -10 4 -12 -8
-7 -11 4 -14 2 -11 -8 4 -10 0 -13 -16 -10 -16 3 -20 0 -16 -10 3 -9 -5 -22
-20 -31 -14 -10 -23 -23 -20 -30 3 -8 0 -14 -6 -14 -9 0 -9 -3 0 -12 9 -9 9
-15 -1 -26 -15 -19 -19 -74 -4 -65 6 4 8 0 4 -10 -3 -10 -2 -17 3 -17 5 0 7
-6 4 -14 -3 -8 0 -17 6 -21 9 -6 9 -9 0 -15 -9 -6 -6 -10 9 -15 11 -3 21 -11
21 -16 0 -6 5 -7 10 -4 6 3 10 1 10 -5 0 -17 30 -44 53 -47 12 -2 24 -8 28
-14 5 -8 9 -8 13 0 9 15 28 3 20 -12 -3 -7 2 -3 10 7 15 18 16 18 16 2 0 -9 5
-14 10 -11 6 4 7 12 3 18 -4 8 -1 7 9 -1 12 -10 18 -10 23 -1 6 8 10 7 16 -2
7 -11 9 -10 9 3 0 12 6 16 20 13 13 -2 23 2 27 11 3 9 17 20 30 25 13 5 22 13
19 18 -3 4 2 17 10 27 9 10 12 13 8 5 -5 -10 -3 -12 5 -7 8 6 9 12 2 20 -7 9
-7 16 1 24 13 13 20 45 9 38 -11 -7 -7 38 4 46 6 5 4 8 -5 8 -13 0 -13 1 0 10
10 6 11 10 3 10 -7 0 -13 5 -13 11 0 5 6 7 13 4 6 -4 5 -1 -4 7 -9 7 -14 19
-12 26 3 6 0 12 -7 12 -6 0 -8 5 -5 10 3 6 -1 10 -10 10 -9 0 -14 3 -12 8 3 4
-5 16 -16 27 -11 11 -16 13 -12 5 7 -12 6 -13 -7 -3 -8 7 -18 10 -22 6 -4 -4
-4 0 -1 9 5 13 2 15 -14 11 -12 -3 -21 -1 -21 6 0 6 -12 11 -26 11 -16 0 -23
4 -18 12 4 7 3 8 -5 4 -6 -4 -9 -11 -7 -15 3 -4 -1 -8 -9 -8 -8 0 -11 5 -7 11
3 6 -6 3 -22 -7 -28 -18 -28 -18 -21 2 8 25 5 25 -18 0z m79 -51 c-4 6 -2 12
3 12 6 0 11 -4 11 -9 0 -5 13 -8 29 -7 22 2 28 -2 26 -15 -3 -12 2 -15 16 -12
11 3 19 0 19 -6 0 -7 -4 -10 -8 -7 -5 3 -9 -1 -9 -9 0 -10 5 -11 19 -4 12 6
18 6 18 -1 0 -5 -6 -10 -12 -10 -7 0 -3 -6 8 -14 16 -11 20 -23 16 -46 -2 -17
2 -38 9 -48 12 -15 12 -16 -2 -4 -14 11 -16 9 -14 -13 2 -14 -1 -27 -6 -31 -5
-3 -7 -9 -4 -14 3 -4 -2 -10 -10 -14 -8 -3 -13 -11 -11 -18 1 -7 1 -10 -1 -6
-6 9 -33 -2 -33 -14 0 -5 5 -6 12 -2 7 4 8 3 4 -5 -4 -6 -11 -9 -16 -6 -5 3
-11 1 -14 -3 -3 -5 -15 -8 -28 -7 -13 1 -26 -2 -29 -7 -3 -4 -14 -1 -25 8 -10
8 -13 12 -5 8 10 -5 12 -3 6 5 -5 9 -10 10 -18 2 -14 -14 -30 -14 -22 -1 3 6
-1 10 -11 10 -9 0 -25 10 -35 22 -12 13 -19 16 -19 8 0 -7 -3 -11 -6 -8 -3 4
0 16 6 28 8 15 8 20 1 16 -10 -6 -16 20 -12 47 0 4 -4 7 -11 7 -9 0 -9 3 0 12
17 17 15 28 -5 29 -17 1 -17 2 0 6 9 2 17 11 17 19 0 8 6 14 13 15 9 0 9 2 -1
6 -10 4 -8 9 7 20 12 8 18 19 15 25 -5 8 -1 9 10 5 14 -6 17 -3 12 9 -5 14 -4
15 9 4 12 -10 15 -10 15 0 0 7 6 10 14 7 8 -3 17 1 20 10 5 13 9 13 23 2 12
-10 14 -10 9 -1z"/>
<path d="M7770 8195 c-11 -13 -15 -13 -21 -3 -7 10 -9 10 -9 1 0 -7 -7 -10
-17 -6 -13 5 -15 2 -11 -15 4 -12 2 -22 -3 -22 -5 0 -5 -10 1 -24 5 -13 7 -26
4 -28 -2 -3 -5 -25 -5 -49 -1 -24 -7 -51 -13 -59 -9 -13 -9 -13 5 -2 14 10 18
10 22 -2 6 -15 31 -16 44 -1 4 4 1 5 -7 1 -10 -5 -9 -2 2 7 13 10 15 16 6 25
-9 9 -6 12 11 12 17 0 22 -4 17 -16 -5 -14 -4 -15 8 -5 11 9 16 9 22 0 5 -8 3
-9 -7 -4 -12 8 -12 6 0 -9 8 -9 20 -15 26 -12 7 2 17 0 23 -6 6 -6 12 -6 16 0
3 5 -2 16 -11 23 -9 8 -14 9 -10 3 3 -6 0 -11 -8 -11 -11 0 -12 4 -4 13 6 7
17 10 25 7 8 -3 14 0 14 7 0 6 -4 9 -9 5 -14 -8 -42 24 -34 38 4 7 -1 6 -10
-2 -10 -8 -20 -11 -24 -7 -3 3 -1 6 6 6 7 0 11 6 8 14 -4 10 0 14 12 11 14 -2
17 2 15 21 -1 13 2 26 7 29 12 8 -13 34 -26 27 -5 -3 -4 2 4 11 12 15 11 17
-13 17 -14 0 -26 -6 -26 -12 0 -9 -3 -8 -9 2 -6 8 -7 18 -5 22 9 14 -3 9 -16
-7z m32 -57 c17 -17 18 -20 4 -15 -13 5 -17 3 -13 -7 4 -9 0 -12 -13 -9 -10 3
-21 12 -25 20 -4 13 -3 14 9 4 13 -11 15 -9 11 8 -5 26 0 26 27 -1z"/>
<path d="M3556 7822 c-3 -5 1 -9 9 -9 8 0 12 4 9 9 -3 4 -7 8 -9 8 -2 0 -6 -4
-9 -8z"/>
<path d="M3935 7381 c-3 -5 -2 -12 3 -15 5 -3 9 1 9 9 0 17 -3 19 -12 6z"/>
<path d="M5046 7093 c-6 -14 -5 -15 5 -6 7 7 10 15 7 18 -3 3 -9 -2 -12 -12z"/>
<path d="M5080 6979 c0 -5 5 -7 10 -4 6 3 10 8 10 11 0 2 -4 4 -10 4 -5 0 -10
-5 -10 -11z"/>
<path d="M5846 6495 c-11 -8 -15 -15 -9 -15 6 0 16 7 23 15 16 19 11 19 -14 0z"/>
<path d="M3220 5866 c0 -2 8 -10 18 -17 15 -13 16 -12 3 4 -13 16 -21 21 -21
13z"/>
<path d="M5005 5520 c3 -5 8 -10 11 -10 2 0 4 5 4 10 0 6 -5 10 -11 10 -5 0
-7 -4 -4 -10z"/>
<path d="M3435 5120 c-3 -5 -1 -10 4 -10 6 0 11 5 11 10 0 6 -2 10 -4 10 -3 0
-8 -4 -11 -10z"/>
<path d="M6808 5043 c7 -3 16 -2 19 1 4 3 -2 6 -13 5 -11 0 -14 -3 -6 -6z"/>
<path d="M3295 4820 c3 -5 8 -10 11 -10 2 0 4 5 4 10 0 6 -5 10 -11 10 -5 0
-7 -4 -4 -10z"/>
<path d="M4095 2700 c3 -5 8 -10 11 -10 2 0 4 5 4 10 0 6 -5 10 -11 10 -5 0
-7 -4 -4 -10z"/>
<path d="M5940 1919 c0 -5 5 -7 10 -4 6 3 10 8 10 11 0 2 -4 4 -10 4 -5 0 -10
-5 -10 -11z"/>
</g>
</svg>
